%TF.GenerationSoftware,KiCad,Pcbnew,(5.1.10-1-10_14)*%
%TF.CreationDate,2021-07-27T15:44:47+02:00*%
%TF.ProjectId,EX-PCB-10108-001,45582d50-4342-42d3-9130-3130382d3030,A*%
%TF.SameCoordinates,Original*%
%TF.FileFunction,Paste,Bot*%
%TF.FilePolarity,Positive*%
%FSLAX46Y46*%
G04 Gerber Fmt 4.6, Leading zero omitted, Abs format (unit mm)*
G04 Created by KiCad (PCBNEW (5.1.10-1-10_14)) date 2021-07-27 15:44:47*
%MOMM*%
%LPD*%
G01*
G04 APERTURE LIST*
%TA.AperFunction,Profile*%
%ADD10C,0.500000*%
%TD*%
%ADD11R,0.510000X0.450000*%
%ADD12R,0.450000X0.510000*%
%ADD13R,0.710000X0.810000*%
%ADD14R,0.810000X0.710000*%
%ADD15R,0.180000X0.405000*%
%ADD16R,1.620000X0.360000*%
%ADD17R,1.250000X1.150000*%
%ADD18R,1.800000X1.070000*%
%ADD19R,0.550000X1.060000*%
%ADD20R,1.060000X0.550000*%
%ADD21C,0.100000*%
%ADD22R,1.060000X0.500000*%
G04 APERTURE END LIST*
D10*
X117700000Y-81500000D02*
G75*
G02*
X121450000Y-85250000I0J-3750000D01*
G01*
X46450000Y-85250000D02*
G75*
G02*
X50200000Y-81500000I3750000J0D01*
G01*
X50200000Y-136500000D02*
G75*
G02*
X46450000Y-132750000I0J3750000D01*
G01*
X121450000Y-132750000D02*
G75*
G02*
X117700000Y-136500000I-3750000J0D01*
G01*
X46450000Y-85250000D02*
X46450000Y-132750000D01*
X117700000Y-136500000D02*
X50200000Y-136500000D01*
X117700000Y-81500000D02*
X50200000Y-81500000D01*
X121450000Y-85250000D02*
X121450000Y-132750000D01*
D11*
X103450000Y-99875000D03*
X103450000Y-100625000D03*
X102200000Y-106625000D03*
X102200000Y-107375000D03*
D12*
X104575000Y-104250000D03*
X105325000Y-104250000D03*
D11*
X103200000Y-106625000D03*
X103200000Y-107375000D03*
D12*
X119575000Y-109750000D03*
X118825000Y-109750000D03*
X116575000Y-114250000D03*
X115825000Y-114250000D03*
D13*
X100345000Y-102000000D03*
X99055000Y-102000000D03*
D12*
X100075000Y-100750000D03*
X100825000Y-100750000D03*
D14*
X104700000Y-100895000D03*
X104700000Y-99605000D03*
D13*
X102095000Y-109000000D03*
X100805000Y-109000000D03*
D14*
X105200000Y-105355000D03*
X105200000Y-106645000D03*
D13*
X103555000Y-109000000D03*
X104845000Y-109000000D03*
D12*
X88075000Y-113750000D03*
X88825000Y-113750000D03*
X88025000Y-114750000D03*
X88775000Y-114750000D03*
X87325000Y-111250000D03*
X88075000Y-111250000D03*
D11*
X89700000Y-105875000D03*
X89700000Y-105125000D03*
X107200000Y-103875000D03*
X107200000Y-104625000D03*
D15*
X71000000Y-128125000D03*
X71400000Y-128125000D03*
X71800000Y-128125000D03*
X72200000Y-128125000D03*
X70200000Y-128125000D03*
X70600000Y-128125000D03*
X71800000Y-126875000D03*
X72200000Y-126875000D03*
X71000000Y-126875000D03*
X71400000Y-126875000D03*
X70600000Y-126875000D03*
X70200000Y-126875000D03*
D16*
X71200000Y-127500000D03*
D14*
X56200000Y-133145000D03*
X56200000Y-131855000D03*
X52700000Y-133145000D03*
X52700000Y-131855000D03*
X115950000Y-91045000D03*
X115950000Y-89755000D03*
D13*
X116305000Y-95500000D03*
X117595000Y-95500000D03*
D12*
X100325000Y-114250000D03*
X101075000Y-114250000D03*
X98575000Y-114250000D03*
X99325000Y-114250000D03*
X106575000Y-114500000D03*
X107325000Y-114500000D03*
X104825000Y-114500000D03*
X105575000Y-114500000D03*
D17*
X106950000Y-122375000D03*
X106950000Y-120625000D03*
X108950000Y-122375000D03*
X108950000Y-120625000D03*
X76950000Y-131125000D03*
X76950000Y-132875000D03*
D18*
X54950000Y-111755000D03*
X54950000Y-108745000D03*
X54950000Y-103005000D03*
X54950000Y-99995000D03*
D13*
X56305000Y-123250000D03*
X57595000Y-123250000D03*
X106845000Y-124000000D03*
X105555000Y-124000000D03*
X109055000Y-124000000D03*
X110345000Y-124000000D03*
X88345000Y-112500000D03*
X87055000Y-112500000D03*
X101845000Y-112500000D03*
X100555000Y-112500000D03*
X104555000Y-113250000D03*
X105845000Y-113250000D03*
D14*
X74450000Y-132355000D03*
X74450000Y-133645000D03*
X70450000Y-132355000D03*
X70450000Y-133645000D03*
D12*
X72075000Y-134000000D03*
X72825000Y-134000000D03*
D13*
X108345000Y-112500000D03*
X107055000Y-112500000D03*
X56055000Y-113500000D03*
X57345000Y-113500000D03*
X49055000Y-108250000D03*
X50345000Y-108250000D03*
X90055000Y-122750000D03*
X91345000Y-122750000D03*
X90055000Y-124250000D03*
X91345000Y-124250000D03*
D14*
X48700000Y-111105000D03*
X48700000Y-112395000D03*
D13*
X98055000Y-113000000D03*
X99345000Y-113000000D03*
D14*
X48700000Y-105645000D03*
X48700000Y-104355000D03*
D19*
X108900000Y-127850000D03*
X107950000Y-127850000D03*
X107000000Y-127850000D03*
X107000000Y-125650000D03*
X108900000Y-125650000D03*
X107950000Y-125650000D03*
D20*
X61050000Y-125550000D03*
X61050000Y-126500000D03*
X61050000Y-127450000D03*
X58850000Y-127450000D03*
X58850000Y-125550000D03*
X58850000Y-126500000D03*
D21*
G36*
X83913622Y-127018790D02*
G01*
X83524713Y-126629881D01*
X84274246Y-125880348D01*
X84663155Y-126269257D01*
X83913622Y-127018790D01*
G37*
G36*
X83241871Y-126347038D02*
G01*
X82852962Y-125958129D01*
X83602495Y-125208596D01*
X83991404Y-125597505D01*
X83241871Y-126347038D01*
G37*
G36*
X82570119Y-125675287D02*
G01*
X82181210Y-125286378D01*
X82930743Y-124536845D01*
X83319652Y-124925754D01*
X82570119Y-125675287D01*
G37*
G36*
X84125754Y-124119652D02*
G01*
X83736845Y-123730743D01*
X84486378Y-122981210D01*
X84875287Y-123370119D01*
X84125754Y-124119652D01*
G37*
G36*
X85469257Y-125463155D02*
G01*
X85080348Y-125074246D01*
X85829881Y-124324713D01*
X86218790Y-124713622D01*
X85469257Y-125463155D01*
G37*
G36*
X84797505Y-124791404D02*
G01*
X84408596Y-124402495D01*
X85158129Y-123652962D01*
X85547038Y-124041871D01*
X84797505Y-124791404D01*
G37*
G36*
X67760660Y-123292894D02*
G01*
X68114213Y-123646447D01*
X67548528Y-124212132D01*
X67194975Y-123858579D01*
X67760660Y-123292894D01*
G37*
G36*
X66558579Y-124494975D02*
G01*
X66912132Y-124848528D01*
X66346447Y-125414213D01*
X65992894Y-125060660D01*
X66558579Y-124494975D01*
G37*
G36*
X65851472Y-123787868D02*
G01*
X66205025Y-124141421D01*
X65639340Y-124707106D01*
X65285787Y-124353553D01*
X65851472Y-123787868D01*
G37*
G36*
X67053553Y-122585787D02*
G01*
X67407106Y-122939340D01*
X66841421Y-123505025D01*
X66487868Y-123151472D01*
X67053553Y-122585787D01*
G37*
D18*
X48200000Y-129755000D03*
X48200000Y-126745000D03*
D21*
G36*
X88760660Y-121042894D02*
G01*
X89114213Y-121396447D01*
X88548528Y-121962132D01*
X88194975Y-121608579D01*
X88760660Y-121042894D01*
G37*
G36*
X87558579Y-122244975D02*
G01*
X87912132Y-122598528D01*
X87346447Y-123164213D01*
X86992894Y-122810660D01*
X87558579Y-122244975D01*
G37*
G36*
X86851472Y-121537868D02*
G01*
X87205025Y-121891421D01*
X86639340Y-122457106D01*
X86285787Y-122103553D01*
X86851472Y-121537868D01*
G37*
G36*
X88053553Y-120335787D02*
G01*
X88407106Y-120689340D01*
X87841421Y-121255025D01*
X87487868Y-120901472D01*
X88053553Y-120335787D01*
G37*
D12*
X95350000Y-109600000D03*
X94600000Y-109600000D03*
D11*
X84500000Y-98325000D03*
X84500000Y-97575000D03*
D12*
X84525000Y-96650000D03*
X85275000Y-96650000D03*
D11*
X81700000Y-99125000D03*
X81700000Y-99875000D03*
D12*
X59275000Y-106900000D03*
X58525000Y-106900000D03*
X59275000Y-98400000D03*
X58525000Y-98400000D03*
X58525000Y-99400000D03*
X59275000Y-99400000D03*
X58525000Y-107900000D03*
X59275000Y-107900000D03*
X58525000Y-97400000D03*
X59275000Y-97400000D03*
D13*
X55595000Y-97250000D03*
X54305000Y-97250000D03*
D14*
X69050000Y-117845000D03*
X69050000Y-116555000D03*
D22*
X67400000Y-118150000D03*
X67400000Y-116250000D03*
X65200000Y-116250000D03*
X65200000Y-117200000D03*
X65200000Y-118150000D03*
D12*
X82175000Y-117950000D03*
X82925000Y-117950000D03*
D13*
X55595000Y-98500000D03*
X54305000Y-98500000D03*
D12*
X58525000Y-108900000D03*
X59275000Y-108900000D03*
D13*
X91355000Y-113150000D03*
X92645000Y-113150000D03*
X91505000Y-110750000D03*
X92795000Y-110750000D03*
X58255000Y-102650000D03*
X59545000Y-102650000D03*
D11*
X84200000Y-103175000D03*
X84200000Y-102425000D03*
D12*
X65525000Y-103200000D03*
X66275000Y-103200000D03*
X65525000Y-104450000D03*
X66275000Y-104450000D03*
D11*
X70650000Y-105447599D03*
X70650000Y-104697599D03*
X79750000Y-109475000D03*
X79750000Y-110225000D03*
D14*
X54725000Y-95345000D03*
X54725000Y-94055000D03*
X55925000Y-95345000D03*
X55925000Y-94055000D03*
D12*
X87525000Y-101950000D03*
X88275000Y-101950000D03*
D11*
X89000000Y-107800000D03*
X89000000Y-108550000D03*
D12*
X82775000Y-103950000D03*
X82025000Y-103950000D03*
X65525000Y-102200000D03*
X66275000Y-102200000D03*
X65525000Y-106450000D03*
X66275000Y-106450000D03*
X65525000Y-107950000D03*
X66275000Y-107950000D03*
X65525000Y-110450000D03*
X66275000Y-110450000D03*
D11*
X69400000Y-111325000D03*
X69400000Y-112075000D03*
D21*
G36*
X70113622Y-107125754D02*
G01*
X70474246Y-107486378D01*
X70156048Y-107804576D01*
X69795424Y-107443952D01*
X70113622Y-107125754D01*
G37*
G36*
X70643952Y-106595424D02*
G01*
X71004576Y-106956048D01*
X70686378Y-107274246D01*
X70325754Y-106913622D01*
X70643952Y-106595424D01*
G37*
D12*
X75275000Y-111950000D03*
X74525000Y-111950000D03*
D11*
X74800000Y-109975000D03*
X74800000Y-110725000D03*
D12*
X76575000Y-100650000D03*
X75825000Y-100650000D03*
D11*
X68400000Y-101325000D03*
X68400000Y-102075000D03*
X72400000Y-105575000D03*
X72400000Y-106325000D03*
X76050000Y-107925000D03*
X76050000Y-107175000D03*
D12*
X65525000Y-109200000D03*
X66275000Y-109200000D03*
D14*
X70650000Y-103095000D03*
X70650000Y-101805000D03*
D12*
X83925000Y-105450000D03*
X83175000Y-105450000D03*
X83275000Y-106950000D03*
X82525000Y-106950000D03*
X84275000Y-104050000D03*
X83525000Y-104050000D03*
D11*
X82650000Y-108825000D03*
X82650000Y-109575000D03*
D12*
X65025000Y-100700000D03*
X65775000Y-100700000D03*
X65025000Y-99450000D03*
X65775000Y-99450000D03*
X84775000Y-108700000D03*
X84025000Y-108700000D03*
D14*
X85800000Y-104420000D03*
X85800000Y-103130000D03*
D11*
X88900000Y-103075000D03*
X88900000Y-103825000D03*
X87400000Y-103075000D03*
X87400000Y-103825000D03*
D12*
X92175000Y-111800000D03*
X91425000Y-111800000D03*
D14*
X85750000Y-107955000D03*
X85750000Y-109245000D03*
D12*
X85375000Y-105450000D03*
X84625000Y-105450000D03*
D11*
X89900000Y-111575000D03*
X89900000Y-110825000D03*
D12*
X88525000Y-106950000D03*
X87775000Y-106950000D03*
D11*
X88150000Y-107825000D03*
X88150000Y-108575000D03*
D12*
X84025000Y-106950000D03*
X84775000Y-106950000D03*
D11*
X89900000Y-113075000D03*
X89900000Y-112325000D03*
D12*
X86275000Y-106950000D03*
X87025000Y-106950000D03*
D11*
X86650000Y-106075000D03*
X86650000Y-105325000D03*
X89950000Y-107800000D03*
X89950000Y-108550000D03*
D12*
X88775000Y-105450000D03*
X88025000Y-105450000D03*
X87275000Y-110200000D03*
X88025000Y-110200000D03*
D13*
X66545000Y-111700000D03*
X65255000Y-111700000D03*
M02*
