M48
; DRILL file {KiCad (5.1.10-1-10_14)} date Tuesday, July 27, 2021 at 03:44:54 PM
; FORMAT={-:-/ absolute / metric / decimal}
; #@! TF.CreationDate,2021-07-27T15:44:54+02:00
; #@! TF.GenerationSoftware,Kicad,Pcbnew,(5.1.10-1-10_14)
; #@! TF.FileFunction,Plated,1,4,PTH
FMAT,2
METRIC
T1C0.200
T2C0.400
T3C0.600
T4C1.000
%
G90
G05
T1
X47.45Y-88.75
X47.45Y-93.5
X47.45Y-107.25
X47.45Y-108.25
X47.45Y-109.25
X47.45Y-116.5
X47.45Y-123.25
X47.45Y-125.5
X47.95Y-107.75
X47.95Y-108.75
X48.2Y-106.75
X48.2Y-109.5
X48.2Y-125.5
X48.2Y-131.0
X48.2Y-133.5
X48.55Y-116.8
X48.7Y-113.5
X48.85Y-115.3
X48.945Y-106.455
X48.945Y-110.045
X48.95Y-125.5
X49.55Y-102.462
X50.45Y-127.5
X50.7Y-107.25
X50.7Y-109.25
X50.95Y-128.0
X51.7Y-95.75
X52.05Y-100.5
X52.15Y-98.5
X52.25Y-101.9
X52.25Y-115.3
X52.35Y-117.6
X52.7Y-124.0
X52.7Y-130.75
X52.7Y-134.0
X53.2Y-111.5
X53.2Y-122.5
X53.2Y-135.75
X53.375Y-102.525
X53.45Y-97.25
X53.45Y-98.5
X53.7Y-82.25
X53.7Y-130.25
X53.95Y-101.5
X54.075Y-131.25
X54.7Y-93.0
X54.7Y-105.25
X54.709Y-104.109
X54.825Y-131.25
X55.275Y-104.675
X55.3Y-106.146
X55.3Y-106.9
X55.3Y-107.689
X55.45Y-130.25
X55.95Y-91.0
X55.95Y-93.0
X56.2Y-130.75
X56.2Y-134.0
X56.225Y-101.45
X56.45Y-110.25
X56.7Y-111.0
X56.775Y-96.825
X56.797Y-97.48
X56.8Y-98.15
X56.9Y-103.65
X56.9Y-104.4
X57.05Y-94.275
X57.05Y-95.05
X57.05Y-95.8
X57.14Y-108.11
X57.2Y-110.25
X57.4Y-101.65
X57.5Y-106.0
X57.65Y-100.4
X57.65Y-103.4
X57.7Y-93.625
X57.7Y-126.5
X57.7Y-128.25
X57.875Y-87.925
X58.4Y-109.9
X58.45Y-111.0
X58.45Y-128.25
X59.4Y-110.15
X59.69Y-115.53
X59.7Y-111.5
X59.7Y-112.5
X59.7Y-113.5
X59.7Y-114.5
X59.95Y-126.5
X60.05Y-92.9
X60.2Y-135.75
X60.35Y-119.9
X60.4Y-100.9
X60.4Y-102.65
X60.4Y-109.8
X60.45Y-122.5
X60.9Y-107.42
X60.9Y-108.37
X60.91Y-98.89
X60.93Y-97.94
X61.2Y-121.75
X61.2Y-122.5
X61.2Y-123.25
X61.95Y-122.5
X61.95Y-126.5
X62.025Y-92.0
X62.425Y-87.975
X63.037Y-122.25
X63.469Y-122.694
X63.882Y-122.25
X64.1Y-105.25
X64.103Y-109.8
X64.2Y-108.99
X64.2Y-128.5
X64.294Y-122.934
X64.465Y-120.045
X64.478Y-99.125
X64.5Y-103.5
X64.65Y-101.95
X64.75Y-115.4
X64.86Y-107.21
X64.865Y-122.748
X65.075Y-110.95
X65.175Y-112.775
X65.2Y-103.875
X65.443Y-109.831
X65.55Y-122.15
X65.625Y-93.85
X65.7Y-119.0
X66.675Y-100.35
X66.766Y-105.013
X67.05Y-109.75
X67.125Y-102.025
X67.225Y-103.375
X67.3Y-118.7
X67.325Y-99.8
X67.325Y-101.425
X67.33Y-104.233
X67.35Y-100.625
X67.35Y-106.233
X67.35Y-107.04
X67.35Y-107.855
X67.475Y-102.75
X67.567Y-109.025
X67.575Y-110.625
X67.575Y-111.425
X67.95Y-135.75
X68.07Y-127.25
X68.307Y-88.121
X68.35Y-105.825
X68.375Y-105.025
X68.393Y-104.207
X68.4Y-102.625
X68.4Y-106.6
X68.408Y-109.074
X68.425Y-99.35
X68.742Y-112.55
X68.79Y-129.11
X68.95Y-89.25
X69.175Y-106.625
X69.175Y-108.225
X69.175Y-110.65
X69.175Y-104.188
X69.193Y-101.007
X69.2Y-107.425
X69.2Y-128.25
X69.2Y-102.625
X69.45Y-132.5
X69.45Y-133.75
X69.792Y-128.942
X69.9Y-99.2
X69.95Y-106.65
X70.075Y-105.425
X70.1Y-104.675
X70.15Y-90.3
X70.2Y-125.0
X70.2Y-130.0
X70.483Y-125.633
X70.82Y-129.128
X70.95Y-125.0
X71.0Y-103.9
X71.24Y-129.96
X71.26Y-89.015
X71.264Y-100.46
X71.43Y-97.842
X71.45Y-105.058
X71.525Y-101.825
X71.612Y-125.736
X71.641Y-101.204
X71.75Y-107.05
X71.8Y-107.75
X71.8Y-108.45
X71.95Y-125.0
X71.95Y-133.0
X71.95Y-134.75
X71.956Y-100.46
X72.008Y-111.3
X72.05Y-102.675
X72.051Y-104.35
X72.07Y-104.997
X72.211Y-97.8
X72.305Y-103.375
X72.437Y-125.722
X72.442Y-128.716
X72.61Y-112.364
X72.758Y-113.51
X72.8Y-117.85
X72.825Y-89.55
X72.95Y-133.0
X73.145Y-105.808
X73.145Y-108.236
X73.146Y-106.606
X73.15Y-97.75
X73.15Y-109.8
X73.158Y-107.421
X73.16Y-109.043
X73.162Y-101.037
X73.167Y-110.64
X73.175Y-103.45
X73.189Y-101.792
X73.25Y-126.6
X73.65Y-127.35
X73.8Y-112.35
X73.95Y-123.25
X73.963Y-109.025
X73.975Y-104.262
X73.975Y-101.05
X73.975Y-103.425
X73.975Y-109.825
X73.975Y-111.425
X73.981Y-107.451
X73.995Y-110.642
X73.999Y-106.617
X74.15Y-97.75
X74.45Y-134.5
X74.758Y-104.248
X74.9Y-105.05
X74.902Y-102.308
X74.95Y-101.192
X75.162Y-100.631
X75.3Y-107.05
X75.3Y-107.95
X75.388Y-103.212
X75.45Y-88.9
X75.45Y-90.5
X75.6Y-102.308
X75.892Y-110.582
X75.908Y-105.838
X75.953Y-102.923
X76.1Y-108.6
X76.2Y-135.75
X76.325Y-89.125
X76.458Y-105.05
X76.95Y-129.75
X77.2Y-107.8
X77.2Y-97.3
X77.202Y-108.615
X77.6Y-101.175
X77.6Y-105.35
X77.95Y-128.75
X77.95Y-108.6
X78.25Y-107.535
X78.45Y-131.0
X78.55Y-112.95
X78.95Y-94.313
X78.95Y-107.52
X79.2Y-117.622
X79.292Y-112.785
X79.65Y-94.3
X79.7Y-123.5
X79.95Y-113.85
X80.7Y-122.5
X80.742Y-113.425
X80.923Y-111.027
X80.942Y-104.648
X80.95Y-110.212
X80.964Y-106.207
X80.964Y-100.587
X80.975Y-103.075
X80.975Y-108.577
X80.986Y-109.392
X81.0Y-107.762
X81.016Y-114.091
X81.025Y-101.425
X81.025Y-102.275
X81.07Y-94.598
X81.557Y-113.377
X81.65Y-98.5
X81.7Y-84.75
X81.75Y-105.392
X81.75Y-111.025
X81.775Y-106.273
X81.775Y-108.655
X81.775Y-110.225
X81.78Y-109.49
X81.783Y-104.577
X81.8Y-107.0
X81.803Y-107.84
X81.809Y-103.059
X81.822Y-100.614
X81.846Y-94.791
X81.95Y-123.5
X81.95Y-135.75
X82.45Y-92.5
X82.539Y-106.189
X82.55Y-86.7
X82.55Y-110.225
X82.553Y-107.83
X82.564Y-103.088
X82.572Y-104.629
X82.575Y-105.425
X82.575Y-111.825
X82.6Y-111.0
X82.7Y-126.5
X82.781Y-113.881
X83.05Y-96.7
X83.05Y-97.5
X83.15Y-119.5
X83.2Y-88.25
X83.35Y-109.425
X83.375Y-104.625
X83.375Y-106.225
X83.375Y-107.825
X83.375Y-108.625
X83.375Y-110.225
X83.388Y-101.379
X83.95Y-92.75
X84.066Y-94.145
X84.12Y-101.43
X84.145Y-100.607
X84.15Y-104.65
X84.175Y-106.225
X84.175Y-107.825
X84.175Y-110.225
X84.2Y-125.0
X84.219Y-109.439
X84.45Y-116.7
X84.55Y-115.05
X84.7Y-86.75
X84.835Y-110.956
X84.95Y-94.25
X84.95Y-109.45
X84.95Y-103.8
X84.951Y-103.001
X84.975Y-104.625
X84.975Y-107.825
X84.987Y-101.38
X84.99Y-100.61
X84.991Y-102.267
X85.0Y-106.225
X85.0Y-119.4
X85.0Y-114.2
X85.009Y-110.259
X85.027Y-113.446
X85.35Y-95.6
X85.75Y-111.05
X85.775Y-106.225
X85.825Y-99.875
X85.925Y-123.475
X85.97Y-105.46
X86.05Y-117.4
X86.2Y-84.75
X86.45Y-93.25
X86.52Y-101.43
X86.536Y-103.063
X86.55Y-109.45
X86.575Y-107.825
X86.6Y-104.6
X86.65Y-108.65
X87.2Y-94.5
X87.35Y-108.65
X87.375Y-105.425
X87.375Y-107.825
X87.394Y-106.244
X87.4Y-104.65
X87.45Y-116.5
X87.75Y-98.8
X88.05Y-106.26
X88.15Y-109.45
X88.198Y-103.063
X88.7Y-94.5
X88.8Y-116.7
X88.925Y-110.225
X88.945Y-111.026
X88.945Y-111.84
X88.95Y-123.0
X88.962Y-102.225
X88.977Y-109.373
X89.031Y-106.222
X89.04Y-107.03
X89.055Y-104.65
X89.2Y-124.75
X89.45Y-92.0
X89.75Y-118.8
X89.775Y-109.45
X89.78Y-99.83
X89.8Y-107.025
X89.84Y-110.23
X90.2Y-82.25
X90.361Y-113.753
X90.425Y-115.95
X90.55Y-105.425
X90.55Y-107.025
X90.575Y-101.425
X90.575Y-106.225
X90.575Y-109.4
X90.575Y-111.075
X90.575Y-111.85
X90.584Y-108.575
X90.925Y-119.35
X90.95Y-95.5
X90.95Y-97.8
X91.175Y-115.95
X91.313Y-114.75
X91.35Y-107.05
X91.375Y-108.575
X91.4Y-100.65
X91.401Y-103.798
X91.425Y-104.625
X91.675Y-119.35
X91.825Y-128.5
X92.12Y-102.23
X92.151Y-101.401
X92.182Y-99.787
X92.2Y-100.65
X92.45Y-124.25
X92.575Y-128.5
X92.65Y-91.4
X92.7Y-119.5
X92.937Y-112.497
X93.337Y-91.2
X93.45Y-108.0
X93.481Y-111.125
X93.533Y-117.247
X93.65Y-106.0
X93.65Y-106.7
X93.675Y-90.625
X93.9Y-109.6
X93.95Y-119.5
X94.25Y-108.2
X94.425Y-90.675
X94.85Y-88.7
X94.95Y-108.5
X94.95Y-120.5
X95.08Y-114.38
X95.2Y-131.75
X95.45Y-118.5
X95.45Y-119.25
X95.45Y-120.0
X95.45Y-121.0
X95.55Y-111.5
X95.555Y-116.188
X95.642Y-107.025
X95.7Y-122.5
X95.7Y-128.0
X95.95Y-120.5
X95.95Y-128.75
X96.2Y-104.75
X96.2Y-105.5
X96.2Y-109.75
X96.35Y-106.2
X96.85Y-109.777
X96.95Y-125.5
X96.95Y-126.5
X96.95Y-127.25
X97.45Y-90.2
X97.45Y-94.5
X97.45Y-114.25
X97.658Y-107.292
X97.675Y-109.837
X97.7Y-82.25
X97.7Y-96.25
X98.7Y-111.75
X99.15Y-102.9
X99.2Y-121.0
X99.45Y-108.5
X99.45Y-109.4
X99.7Y-111.75
X99.7Y-115.5
X99.7Y-117.25
X99.95Y-126.0
X100.2Y-113.5
X100.7Y-126.0
X100.7Y-126.75
X100.95Y-99.25
X100.95Y-111.6
X101.2Y-95.0
X101.2Y-115.25
X101.45Y-126.0
X101.7Y-101.5
X101.7Y-103.75
X101.7Y-104.75
X101.7Y-105.75
X102.2Y-95.0
X102.2Y-100.75
X102.2Y-117.75
X102.2Y-121.0
X102.45Y-108.0
X102.7Y-101.5
X102.7Y-103.75
X102.7Y-104.75
X102.7Y-105.75
X102.95Y-113.25
X102.95Y-111.75
X102.95Y-112.5
X102.95Y-117.75
X103.2Y-108.0
X103.2Y-122.75
X103.7Y-117.75
X103.7Y-103.75
X103.7Y-104.75
X103.7Y-105.75
X103.7Y-114.0
X104.45Y-111.75
X104.45Y-127.0
X104.7Y-94.0
X104.7Y-115.5
X104.95Y-82.25
X104.95Y-95.0
X105.15Y-102.2
X105.7Y-111.75
X105.7Y-121.5
X105.95Y-99.5
X105.95Y-108.5
X106.075Y-104.144
X106.2Y-105.75
X106.2Y-115.5
X106.2Y-117.25
X106.95Y-113.5
X106.95Y-119.25
X107.45Y-105.75
X107.55Y-109.1
X107.7Y-115.5
X107.95Y-124.5
X107.95Y-129.0
X108.2Y-135.75
X108.45Y-104.5
X108.45Y-118.0
X108.95Y-102.75
X108.95Y-103.5
X108.95Y-105.5
X108.95Y-106.75
X108.95Y-119.25
X109.2Y-111.75
X109.2Y-112.5
X109.2Y-113.25
X109.2Y-118.0
X109.7Y-108.25
X109.95Y-118.0
X109.95Y-110.5
X110.2Y-102.75
X110.2Y-105.75
X110.375Y-122.575
X110.45Y-130.0
X110.7Y-94.0
X110.95Y-119.25
X110.95Y-127.5
X111.2Y-105.5
X111.45Y-95.75
X111.45Y-102.75
X111.45Y-103.5
X111.7Y-104.5
X112.2Y-109.5
X112.7Y-112.75
X112.7Y-129.0
X113.45Y-82.25
X113.45Y-120.75
X113.7Y-123.5
X113.95Y-106.0
X113.95Y-109.25
X114.2Y-88.5
X114.86Y-135.61
X114.95Y-90.7
X114.95Y-95.5
X114.95Y-120.75
X115.45Y-104.75
X115.7Y-115.25
X117.2Y-126.75
X117.45Y-102.5
X117.45Y-114.25
X117.7Y-90.25
X117.95Y-109.75
X118.75Y-95.5
X119.2Y-116.75
X120.45Y-109.75
X120.58Y-131.64
X120.7Y-87.75
X120.7Y-92.25
X120.7Y-97.25
X120.7Y-102.0
X120.7Y-106.25
X120.7Y-113.5
X120.7Y-119.75
X120.7Y-125.5
T2
X84.4Y-128.65
X84.4Y-134.75
X85.6Y-128.65
X85.6Y-134.75
X98.8Y-128.65
X98.8Y-134.75
X100.0Y-128.65
X100.0Y-134.75
T4
X56.02Y-83.98
X56.02Y-86.52
X58.56Y-83.98
X58.56Y-86.52
X61.1Y-83.98
X61.1Y-86.52
X63.64Y-83.98
X63.64Y-86.52
X66.18Y-83.98
X66.18Y-86.52
X68.72Y-83.98
X68.72Y-86.52
X71.26Y-83.98
X71.26Y-86.52
X73.8Y-83.98
X73.8Y-86.52
X76.34Y-83.98
X76.34Y-86.52
X78.88Y-83.98
X78.88Y-86.52
X89.02Y-83.98
X89.02Y-86.52
X91.56Y-83.98
X91.56Y-86.52
X94.1Y-83.98
X94.1Y-86.52
X96.64Y-83.98
X96.64Y-86.52
X99.18Y-83.98
X99.18Y-86.52
X101.72Y-83.98
X101.72Y-86.52
X104.26Y-83.98
X104.26Y-86.52
X106.8Y-83.98
X106.8Y-86.52
X109.34Y-83.98
X109.34Y-86.52
X111.88Y-83.98
X111.88Y-86.52
T3
G00X50.13Y-129.27
M15
G01X50.13Y-130.37
M16
G05
G00X50.13Y-133.6
M15
G01X50.13Y-134.4
M16
G05
G00X58.77Y-129.27
M15
G01X58.77Y-130.37
M16
G05
G00X58.77Y-133.6
M15
G01X58.77Y-134.4
M16
G05
T0
M30
