G04 #@! TF.GenerationSoftware,KiCad,Pcbnew,6.0.0-d3dd2cf0fa~116~ubuntu20.04.1*
G04 #@! TF.CreationDate,2022-01-15T15:14:34-05:00*
G04 #@! TF.ProjectId,EX-PCB-10108-001,45582d50-4342-42d3-9130-3130382d3030,A*
G04 #@! TF.SameCoordinates,Original*
G04 #@! TF.FileFunction,Other,Comment*
%FSLAX46Y46*%
G04 Gerber Fmt 4.6, Leading zero omitted, Abs format (unit mm)*
G04 Created by KiCad (PCBNEW 6.0.0-d3dd2cf0fa~116~ubuntu20.04.1) date 2022-01-15 15:14:34*
%MOMM*%
%LPD*%
G01*
G04 APERTURE LIST*
%ADD10C,0.150000*%
G04 #@! TA.AperFunction,Profile*
%ADD11C,0.500000*%
G04 #@! TD*
G04 APERTURE END LIST*
D10*
X160462563Y-81512563D02*
X162937437Y-83987437D01*
X160462563Y-81512563D02*
X160816117Y-82573223D01*
X160462563Y-81512563D02*
X161523223Y-81866117D01*
X163664285Y-84599761D02*
X163807142Y-84647380D01*
X164045238Y-84647380D01*
X164140476Y-84599761D01*
X164188095Y-84552142D01*
X164235714Y-84456904D01*
X164235714Y-84361666D01*
X164188095Y-84266428D01*
X164140476Y-84218809D01*
X164045238Y-84171190D01*
X163854761Y-84123571D01*
X163759523Y-84075952D01*
X163711904Y-84028333D01*
X163664285Y-83933095D01*
X163664285Y-83837857D01*
X163711904Y-83742619D01*
X163759523Y-83695000D01*
X163854761Y-83647380D01*
X164092857Y-83647380D01*
X164235714Y-83695000D01*
X164521428Y-83647380D02*
X165092857Y-83647380D01*
X164807142Y-84647380D02*
X164807142Y-83647380D01*
X165426190Y-84123571D02*
X165759523Y-84123571D01*
X165902380Y-84647380D02*
X165426190Y-84647380D01*
X165426190Y-83647380D01*
X165902380Y-83647380D01*
X166330952Y-84647380D02*
X166330952Y-83647380D01*
X166902380Y-84647380D01*
X166902380Y-83647380D01*
X167950000Y-84552142D02*
X167902380Y-84599761D01*
X167759523Y-84647380D01*
X167664285Y-84647380D01*
X167521428Y-84599761D01*
X167426190Y-84504523D01*
X167378571Y-84409285D01*
X167330952Y-84218809D01*
X167330952Y-84075952D01*
X167378571Y-83885476D01*
X167426190Y-83790238D01*
X167521428Y-83695000D01*
X167664285Y-83647380D01*
X167759523Y-83647380D01*
X167902380Y-83695000D01*
X167950000Y-83742619D01*
X168378571Y-84647380D02*
X168378571Y-83647380D01*
X169330952Y-84647380D02*
X168854761Y-84647380D01*
X168854761Y-83647380D01*
X161950000Y-86257380D02*
X161378571Y-86257380D01*
X161664285Y-86257380D02*
X161664285Y-85257380D01*
X161569047Y-85400238D01*
X161473809Y-85495476D01*
X161378571Y-85543095D01*
X162807142Y-85257380D02*
X162616666Y-85257380D01*
X162521428Y-85305000D01*
X162473809Y-85352619D01*
X162378571Y-85495476D01*
X162330952Y-85685952D01*
X162330952Y-86066904D01*
X162378571Y-86162142D01*
X162426190Y-86209761D01*
X162521428Y-86257380D01*
X162711904Y-86257380D01*
X162807142Y-86209761D01*
X162854761Y-86162142D01*
X162902380Y-86066904D01*
X162902380Y-85828809D01*
X162854761Y-85733571D01*
X162807142Y-85685952D01*
X162711904Y-85638333D01*
X162521428Y-85638333D01*
X162426190Y-85685952D01*
X162378571Y-85733571D01*
X162330952Y-85828809D01*
X163807142Y-85257380D02*
X163330952Y-85257380D01*
X163283333Y-85733571D01*
X163330952Y-85685952D01*
X163426190Y-85638333D01*
X163664285Y-85638333D01*
X163759523Y-85685952D01*
X163807142Y-85733571D01*
X163854761Y-85828809D01*
X163854761Y-86066904D01*
X163807142Y-86162142D01*
X163759523Y-86209761D01*
X163664285Y-86257380D01*
X163426190Y-86257380D01*
X163330952Y-86209761D01*
X163283333Y-86162142D01*
X164950000Y-86257380D02*
X165473809Y-85590714D01*
X164950000Y-85590714D02*
X165473809Y-86257380D01*
X167045238Y-85257380D02*
X166854761Y-85257380D01*
X166759523Y-85305000D01*
X166711904Y-85352619D01*
X166616666Y-85495476D01*
X166569047Y-85685952D01*
X166569047Y-86066904D01*
X166616666Y-86162142D01*
X166664285Y-86209761D01*
X166759523Y-86257380D01*
X166950000Y-86257380D01*
X167045238Y-86209761D01*
X167092857Y-86162142D01*
X167140476Y-86066904D01*
X167140476Y-85828809D01*
X167092857Y-85733571D01*
X167045238Y-85685952D01*
X166950000Y-85638333D01*
X166759523Y-85638333D01*
X166664285Y-85685952D01*
X166616666Y-85733571D01*
X166569047Y-85828809D01*
X168045238Y-85257380D02*
X167569047Y-85257380D01*
X167521428Y-85733571D01*
X167569047Y-85685952D01*
X167664285Y-85638333D01*
X167902380Y-85638333D01*
X167997619Y-85685952D01*
X168045238Y-85733571D01*
X168092857Y-85828809D01*
X168092857Y-86066904D01*
X168045238Y-86162142D01*
X167997619Y-86209761D01*
X167902380Y-86257380D01*
X167664285Y-86257380D01*
X167569047Y-86209761D01*
X167521428Y-86162142D01*
X169283333Y-86257380D02*
X169283333Y-85590714D01*
X169283333Y-85685952D02*
X169330952Y-85638333D01*
X169426190Y-85590714D01*
X169569047Y-85590714D01*
X169664285Y-85638333D01*
X169711904Y-85733571D01*
X169711904Y-86257380D01*
X169711904Y-85733571D02*
X169759523Y-85638333D01*
X169854761Y-85590714D01*
X169997619Y-85590714D01*
X170092857Y-85638333D01*
X170140476Y-85733571D01*
X170140476Y-86257380D01*
X170616666Y-86257380D02*
X170616666Y-85590714D01*
X170616666Y-85685952D02*
X170664285Y-85638333D01*
X170759523Y-85590714D01*
X170902380Y-85590714D01*
X170997619Y-85638333D01*
X171045238Y-85733571D01*
X171045238Y-86257380D01*
X171045238Y-85733571D02*
X171092857Y-85638333D01*
X171188095Y-85590714D01*
X171330952Y-85590714D01*
X171426190Y-85638333D01*
X171473809Y-85733571D01*
X171473809Y-86257380D01*
X159950000Y-141500000D02*
X159950000Y-76500000D01*
X-5050000Y-141500000D02*
X-5050000Y-76500000D01*
X-5050000Y-141500000D02*
X159950000Y-141500000D01*
X-5050000Y-76500000D02*
X159950000Y-76500000D01*
X39200000Y-89000000D02*
X38200000Y-88500000D01*
X17950000Y-89000000D02*
X18950000Y-89500000D01*
X39200000Y-89000000D02*
X35700000Y-89000000D01*
X39200000Y-89000000D02*
X38200000Y-89500000D01*
X17950000Y-89000000D02*
X18950000Y-88500000D01*
X17950000Y-89000000D02*
X21450000Y-89000000D01*
X22961904Y-89452380D02*
X22961904Y-88452380D01*
X23200000Y-88452380D01*
X23342857Y-88500000D01*
X23438095Y-88595238D01*
X23485714Y-88690476D01*
X23533333Y-88880952D01*
X23533333Y-89023809D01*
X23485714Y-89214285D01*
X23438095Y-89309523D01*
X23342857Y-89404761D01*
X23200000Y-89452380D01*
X22961904Y-89452380D01*
X24152380Y-88452380D02*
X24342857Y-88452380D01*
X24438095Y-88500000D01*
X24533333Y-88595238D01*
X24580952Y-88785714D01*
X24580952Y-89119047D01*
X24533333Y-89309523D01*
X24438095Y-89404761D01*
X24342857Y-89452380D01*
X24152380Y-89452380D01*
X24057142Y-89404761D01*
X23961904Y-89309523D01*
X23914285Y-89119047D01*
X23914285Y-88785714D01*
X23961904Y-88595238D01*
X24057142Y-88500000D01*
X24152380Y-88452380D01*
X25009523Y-89452380D02*
X25009523Y-88452380D01*
X25580952Y-89452380D01*
X25580952Y-88452380D01*
X26104761Y-88452380D02*
X26104761Y-88500000D01*
X26057142Y-88595238D01*
X26009523Y-88642857D01*
X26390476Y-88452380D02*
X26961904Y-88452380D01*
X26676190Y-89452380D02*
X26676190Y-88452380D01*
X28628571Y-89357142D02*
X28580952Y-89404761D01*
X28438095Y-89452380D01*
X28342857Y-89452380D01*
X28200000Y-89404761D01*
X28104761Y-89309523D01*
X28057142Y-89214285D01*
X28009523Y-89023809D01*
X28009523Y-88880952D01*
X28057142Y-88690476D01*
X28104761Y-88595238D01*
X28200000Y-88500000D01*
X28342857Y-88452380D01*
X28438095Y-88452380D01*
X28580952Y-88500000D01*
X28628571Y-88547619D01*
X29057142Y-89452380D02*
X29057142Y-88452380D01*
X29057142Y-88928571D02*
X29628571Y-88928571D01*
X29628571Y-89452380D02*
X29628571Y-88452380D01*
X30057142Y-89166666D02*
X30533333Y-89166666D01*
X29961904Y-89452380D02*
X30295238Y-88452380D01*
X30628571Y-89452380D01*
X30961904Y-89452380D02*
X30961904Y-88452380D01*
X31533333Y-89452380D01*
X31533333Y-88452380D01*
X32533333Y-88500000D02*
X32438095Y-88452380D01*
X32295238Y-88452380D01*
X32152380Y-88500000D01*
X32057142Y-88595238D01*
X32009523Y-88690476D01*
X31961904Y-88880952D01*
X31961904Y-89023809D01*
X32009523Y-89214285D01*
X32057142Y-89309523D01*
X32152380Y-89404761D01*
X32295238Y-89452380D01*
X32390476Y-89452380D01*
X32533333Y-89404761D01*
X32580952Y-89357142D01*
X32580952Y-89023809D01*
X32390476Y-89023809D01*
X33009523Y-88928571D02*
X33342857Y-88928571D01*
X33485714Y-89452380D02*
X33009523Y-89452380D01*
X33009523Y-88452380D01*
X33485714Y-88452380D01*
X17950000Y-129000000D02*
X18950000Y-129500000D01*
X17950000Y-129000000D02*
X21450000Y-129000000D01*
X17950000Y-129000000D02*
X18950000Y-128500000D01*
X39200000Y-129000000D02*
X35700000Y-129000000D01*
X39200000Y-129000000D02*
X38200000Y-128500000D01*
X39200000Y-129000000D02*
X38200000Y-129500000D01*
X22961904Y-129452380D02*
X22961904Y-128452380D01*
X23200000Y-128452380D01*
X23342857Y-128500000D01*
X23438095Y-128595238D01*
X23485714Y-128690476D01*
X23533333Y-128880952D01*
X23533333Y-129023809D01*
X23485714Y-129214285D01*
X23438095Y-129309523D01*
X23342857Y-129404761D01*
X23200000Y-129452380D01*
X22961904Y-129452380D01*
X24152380Y-128452380D02*
X24342857Y-128452380D01*
X24438095Y-128500000D01*
X24533333Y-128595238D01*
X24580952Y-128785714D01*
X24580952Y-129119047D01*
X24533333Y-129309523D01*
X24438095Y-129404761D01*
X24342857Y-129452380D01*
X24152380Y-129452380D01*
X24057142Y-129404761D01*
X23961904Y-129309523D01*
X23914285Y-129119047D01*
X23914285Y-128785714D01*
X23961904Y-128595238D01*
X24057142Y-128500000D01*
X24152380Y-128452380D01*
X25009523Y-129452380D02*
X25009523Y-128452380D01*
X25580952Y-129452380D01*
X25580952Y-128452380D01*
X26104761Y-128452380D02*
X26104761Y-128500000D01*
X26057142Y-128595238D01*
X26009523Y-128642857D01*
X26390476Y-128452380D02*
X26961904Y-128452380D01*
X26676190Y-129452380D02*
X26676190Y-128452380D01*
X28628571Y-129357142D02*
X28580952Y-129404761D01*
X28438095Y-129452380D01*
X28342857Y-129452380D01*
X28200000Y-129404761D01*
X28104761Y-129309523D01*
X28057142Y-129214285D01*
X28009523Y-129023809D01*
X28009523Y-128880952D01*
X28057142Y-128690476D01*
X28104761Y-128595238D01*
X28200000Y-128500000D01*
X28342857Y-128452380D01*
X28438095Y-128452380D01*
X28580952Y-128500000D01*
X28628571Y-128547619D01*
X29057142Y-129452380D02*
X29057142Y-128452380D01*
X29057142Y-128928571D02*
X29628571Y-128928571D01*
X29628571Y-129452380D02*
X29628571Y-128452380D01*
X30057142Y-129166666D02*
X30533333Y-129166666D01*
X29961904Y-129452380D02*
X30295238Y-128452380D01*
X30628571Y-129452380D01*
X30961904Y-129452380D02*
X30961904Y-128452380D01*
X31533333Y-129452380D01*
X31533333Y-128452380D01*
X32533333Y-128500000D02*
X32438095Y-128452380D01*
X32295238Y-128452380D01*
X32152380Y-128500000D01*
X32057142Y-128595238D01*
X32009523Y-128690476D01*
X31961904Y-128880952D01*
X31961904Y-129023809D01*
X32009523Y-129214285D01*
X32057142Y-129309523D01*
X32152380Y-129404761D01*
X32295238Y-129452380D01*
X32390476Y-129452380D01*
X32533333Y-129404761D01*
X32580952Y-129357142D01*
X32580952Y-129023809D01*
X32390476Y-129023809D01*
X33009523Y-128928571D02*
X33342857Y-128928571D01*
X33485714Y-129452380D02*
X33009523Y-129452380D01*
X33009523Y-128452380D01*
X33485714Y-128452380D01*
X45937437Y-137512563D02*
X43462563Y-139987437D01*
X45937437Y-137512563D02*
X44876777Y-137866117D01*
X45937437Y-137512563D02*
X45583883Y-138573223D01*
X38342857Y-139452380D02*
X38676190Y-140452380D01*
X39009523Y-139452380D01*
X39342857Y-140071428D02*
X40104761Y-140071428D01*
X41152380Y-140357142D02*
X41104761Y-140404761D01*
X40961904Y-140452380D01*
X40866666Y-140452380D01*
X40723809Y-140404761D01*
X40628571Y-140309523D01*
X40580952Y-140214285D01*
X40533333Y-140023809D01*
X40533333Y-139880952D01*
X40580952Y-139690476D01*
X40628571Y-139595238D01*
X40723809Y-139500000D01*
X40866666Y-139452380D01*
X40961904Y-139452380D01*
X41104761Y-139500000D01*
X41152380Y-139547619D01*
X41580952Y-139452380D02*
X41580952Y-140261904D01*
X41628571Y-140357142D01*
X41676190Y-140404761D01*
X41771428Y-140452380D01*
X41961904Y-140452380D01*
X42057142Y-140404761D01*
X42104761Y-140357142D01*
X42152380Y-140261904D01*
X42152380Y-139452380D01*
X42485714Y-139452380D02*
X43057142Y-139452380D01*
X42771428Y-140452380D02*
X42771428Y-139452380D01*
X124592857Y-139202380D02*
X124926190Y-140202380D01*
X125259523Y-139202380D01*
X125592857Y-139821428D02*
X126354761Y-139821428D01*
X127402380Y-140107142D02*
X127354761Y-140154761D01*
X127211904Y-140202380D01*
X127116666Y-140202380D01*
X126973809Y-140154761D01*
X126878571Y-140059523D01*
X126830952Y-139964285D01*
X126783333Y-139773809D01*
X126783333Y-139630952D01*
X126830952Y-139440476D01*
X126878571Y-139345238D01*
X126973809Y-139250000D01*
X127116666Y-139202380D01*
X127211904Y-139202380D01*
X127354761Y-139250000D01*
X127402380Y-139297619D01*
X127830952Y-139202380D02*
X127830952Y-140011904D01*
X127878571Y-140107142D01*
X127926190Y-140154761D01*
X128021428Y-140202380D01*
X128211904Y-140202380D01*
X128307142Y-140154761D01*
X128354761Y-140107142D01*
X128402380Y-140011904D01*
X128402380Y-139202380D01*
X128735714Y-139202380D02*
X129307142Y-139202380D01*
X129021428Y-140202380D02*
X129021428Y-139202380D01*
X121712563Y-137262563D02*
X122773223Y-137616117D01*
X121712563Y-137262563D02*
X122066117Y-138323223D01*
X121712563Y-137262563D02*
X124187437Y-139737437D01*
X46450000Y-78250000D02*
X46450000Y-139500000D01*
X121450000Y-78250000D02*
X121450000Y-139500000D01*
D11*
X41450000Y-85250000D02*
X46450000Y-85250000D01*
X41450000Y-132750000D02*
X46450000Y-132750000D01*
X121450000Y-132750000D02*
X126450000Y-132750000D01*
X126450000Y-85250000D02*
X121450000Y-85250000D01*
X126450000Y-85250000D02*
X126450000Y-132750000D01*
X41450000Y-85250000D02*
X41450000Y-132750000D01*
X121450000Y-85250000D02*
G75*
G03*
X117700000Y-81500000I-3750000J0D01*
G01*
X50200000Y-81500000D02*
G75*
G03*
X46450000Y-85250000I0J-3750000D01*
G01*
X46450000Y-132750000D02*
G75*
G03*
X50200000Y-136500000I3750000J0D01*
G01*
X117700000Y-136500000D02*
G75*
G03*
X121450000Y-132750000I0J3750000D01*
G01*
X46450000Y-85250000D02*
X46450000Y-132750000D01*
X117700000Y-136500000D02*
X50200000Y-136500000D01*
X117700000Y-81500000D02*
X50200000Y-81500000D01*
X121450000Y-85250000D02*
X121450000Y-132750000D01*
M02*
