G04 #@! TF.GenerationSoftware,KiCad,Pcbnew,6.0.0-d3dd2cf0fa~116~ubuntu20.04.1*
G04 #@! TF.CreationDate,2022-01-15T15:14:34-05:00*
G04 #@! TF.ProjectId,EX-PCB-10108-001,45582d50-4342-42d3-9130-3130382d3030,A*
G04 #@! TF.SameCoordinates,Original*
G04 #@! TF.FileFunction,Legend,Top*
G04 #@! TF.FilePolarity,Positive*
%FSLAX46Y46*%
G04 Gerber Fmt 4.6, Leading zero omitted, Abs format (unit mm)*
G04 Created by KiCad (PCBNEW 6.0.0-d3dd2cf0fa~116~ubuntu20.04.1) date 2022-01-15 15:14:34*
%MOMM*%
%LPD*%
G01*
G04 APERTURE LIST*
G04 #@! TA.AperFunction,Profile*
%ADD10C,0.500000*%
G04 #@! TD*
%ADD11C,0.150000*%
%ADD12C,0.200000*%
%ADD13C,0.120000*%
%ADD14C,0.100000*%
G04 APERTURE END LIST*
D10*
X41450000Y-85250000D02*
X46450000Y-85250000D01*
X41450000Y-132750000D02*
X46450000Y-132750000D01*
X121450000Y-132750000D02*
X126450000Y-132750000D01*
X126450000Y-85250000D02*
X121450000Y-85250000D01*
X126450000Y-85250000D02*
X126450000Y-132750000D01*
X41450000Y-85250000D02*
X41450000Y-132750000D01*
X121450000Y-85250000D02*
G75*
G03*
X117700000Y-81500000I-3750000J0D01*
G01*
X50200000Y-81500000D02*
G75*
G03*
X46450000Y-85250000I0J-3750000D01*
G01*
X46450000Y-132750000D02*
G75*
G03*
X50200000Y-136500000I3750000J0D01*
G01*
X117700000Y-136500000D02*
G75*
G03*
X121450000Y-132750000I0J3750000D01*
G01*
X46450000Y-85250000D02*
X46450000Y-132750000D01*
X117700000Y-136500000D02*
X50200000Y-136500000D01*
X117700000Y-81500000D02*
X50200000Y-81500000D01*
X121450000Y-85250000D02*
X121450000Y-132750000D01*
D11*
X88199047Y-119731428D02*
X88960952Y-119731428D01*
X88580000Y-120112380D02*
X88580000Y-119350476D01*
X88199047Y-119731428D02*
X88960952Y-119731428D01*
X88580000Y-120112380D02*
X88580000Y-119350476D01*
X112789047Y-101141428D02*
X113550952Y-101141428D01*
X113170000Y-101522380D02*
X113170000Y-100760476D01*
X112789047Y-101141428D02*
X113550952Y-101141428D01*
X113170000Y-101522380D02*
X113170000Y-100760476D01*
X112789047Y-94561428D02*
X113550952Y-94561428D01*
X113170000Y-94942380D02*
X113170000Y-94180476D01*
X112789047Y-94561428D02*
X113550952Y-94561428D01*
X113170000Y-94942380D02*
X113170000Y-94180476D01*
X48181428Y-110750952D02*
X48181428Y-109989047D01*
X48562380Y-110370000D02*
X47800476Y-110370000D01*
X48181428Y-110750952D02*
X48181428Y-109989047D01*
X48562380Y-110370000D02*
X47800476Y-110370000D01*
X52861428Y-106510952D02*
X52861428Y-105749047D01*
X53242380Y-106130000D02*
X52480476Y-106130000D01*
X52861428Y-106510952D02*
X52861428Y-105749047D01*
X53242380Y-106130000D02*
X52480476Y-106130000D01*
D12*
X59240000Y-131350000D02*
X59240000Y-132600000D01*
X49660000Y-131350000D02*
X49660000Y-132600000D01*
X59240000Y-136600000D02*
X59240000Y-135320000D01*
X49660000Y-136600000D02*
X59240000Y-136600000D01*
X49660000Y-135320000D02*
X49660000Y-136600000D01*
D11*
X91875000Y-115900000D02*
X91875000Y-115900000D01*
X93050000Y-116800000D02*
X92850000Y-116800000D01*
X94025000Y-115900000D02*
X94025000Y-115900000D01*
X92850000Y-115000000D02*
X93050000Y-115000000D01*
X93675000Y-113750000D02*
X93675000Y-114250000D01*
X94625000Y-114250000D02*
X94625000Y-113750000D01*
X91675000Y-113650000D02*
X91675000Y-114150000D01*
X92625000Y-114150000D02*
X92625000Y-113650000D01*
X64800000Y-100475000D02*
X65300000Y-100475000D01*
X65300000Y-99525000D02*
X64800000Y-99525000D01*
X64800000Y-101575000D02*
X65300000Y-101575000D01*
X65300000Y-100625000D02*
X64800000Y-100625000D01*
X85600000Y-119025000D02*
X86100000Y-119025000D01*
X86100000Y-118075000D02*
X85600000Y-118075000D01*
X88300000Y-118075000D02*
X87800000Y-118075000D01*
X87800000Y-119025000D02*
X88300000Y-119025000D01*
X110875000Y-103500000D02*
X110875000Y-104500000D01*
X109525000Y-104500000D02*
X109525000Y-103500000D01*
X95200000Y-110025000D02*
X94700000Y-110025000D01*
X94700000Y-110975000D02*
X95200000Y-110975000D01*
X95975000Y-110750000D02*
X95975000Y-111250000D01*
X96925000Y-111250000D02*
X96925000Y-110750000D01*
X98200000Y-108275000D02*
X97700000Y-108275000D01*
X97700000Y-109225000D02*
X98200000Y-109225000D01*
X101200000Y-109225000D02*
X101700000Y-109225000D01*
X101700000Y-108275000D02*
X101200000Y-108275000D01*
X115700000Y-121225000D02*
X116200000Y-121225000D01*
X116200000Y-120275000D02*
X115700000Y-120275000D01*
X111950000Y-113775000D02*
X111450000Y-113775000D01*
X111450000Y-114725000D02*
X111950000Y-114725000D01*
X111450000Y-112225000D02*
X111950000Y-112225000D01*
X111950000Y-111275000D02*
X111450000Y-111275000D01*
X116950000Y-104275000D02*
X116450000Y-104275000D01*
X116450000Y-105225000D02*
X116950000Y-105225000D01*
X111950000Y-112525000D02*
X111450000Y-112525000D01*
X111450000Y-113475000D02*
X111950000Y-113475000D01*
X74325000Y-90950000D02*
X74325000Y-90450000D01*
X73375000Y-90450000D02*
X73375000Y-90950000D01*
D12*
X76640000Y-134850000D02*
X68250000Y-134850000D01*
X76640000Y-135850000D02*
X76640000Y-134850000D01*
X79160000Y-135850000D02*
X76640000Y-135850000D01*
X66700000Y-120650000D02*
X66700000Y-132810000D01*
X67490000Y-120650000D02*
X66700000Y-120650000D01*
X73170000Y-120650000D02*
X70000000Y-120650000D01*
X80700000Y-120650000D02*
X75770000Y-120650000D01*
X80700000Y-133800000D02*
X80700000Y-120650000D01*
D11*
X85450000Y-92775000D02*
X84950000Y-92775000D01*
X84950000Y-93725000D02*
X85450000Y-93725000D01*
X82450000Y-93725000D02*
X82950000Y-93725000D01*
X82950000Y-92775000D02*
X82450000Y-92775000D01*
X88225000Y-95500000D02*
X88225000Y-96000000D01*
X89175000Y-96000000D02*
X89175000Y-95500000D01*
X87475000Y-97250000D02*
X87475000Y-97750000D01*
X88425000Y-97750000D02*
X88425000Y-97250000D01*
X86725000Y-95500000D02*
X86725000Y-96000000D01*
X87675000Y-96000000D02*
X87675000Y-95500000D01*
X85975000Y-97250000D02*
X85975000Y-97750000D01*
X86925000Y-97750000D02*
X86925000Y-97250000D01*
X97450000Y-104075000D02*
X98450000Y-104075000D01*
X98450000Y-105425000D02*
X97450000Y-105425000D01*
X97450000Y-105575000D02*
X98450000Y-105575000D01*
X98450000Y-106925000D02*
X97450000Y-106925000D01*
X74450000Y-88925000D02*
X73950000Y-88925000D01*
X73950000Y-89875000D02*
X74450000Y-89875000D01*
X106950000Y-105225000D02*
X107450000Y-105225000D01*
X107450000Y-104275000D02*
X106950000Y-104275000D01*
X106950000Y-104225000D02*
X107450000Y-104225000D01*
X107450000Y-103275000D02*
X106950000Y-103275000D01*
X107450000Y-107775000D02*
X106950000Y-107775000D01*
X106950000Y-108725000D02*
X107450000Y-108725000D01*
X107450000Y-106275000D02*
X106950000Y-106275000D01*
X106950000Y-107225000D02*
X107450000Y-107225000D01*
D13*
X100090000Y-106635000D02*
X100090000Y-107360000D01*
X105310000Y-102140000D02*
X104585000Y-102140000D01*
X105310000Y-102865000D02*
X105310000Y-102140000D01*
X105310000Y-107360000D02*
X104585000Y-107360000D01*
X105310000Y-106635000D02*
X105310000Y-107360000D01*
X100090000Y-102140000D02*
X100815000Y-102140000D01*
X100090000Y-102865000D02*
X100090000Y-102140000D01*
X98800000Y-115110000D02*
X100600000Y-115110000D01*
X100600000Y-111890000D02*
X98150000Y-111890000D01*
X105300000Y-115110000D02*
X107100000Y-115110000D01*
X107100000Y-111890000D02*
X104650000Y-111890000D01*
D11*
X84225000Y-85250000D02*
X84225000Y-85750000D01*
X85175000Y-85750000D02*
X85175000Y-85250000D01*
X83675000Y-85750000D02*
X83675000Y-85250000D01*
X82725000Y-85250000D02*
X82725000Y-85750000D01*
X99700000Y-100175000D02*
X98700000Y-100175000D01*
X98700000Y-98825000D02*
X99700000Y-98825000D01*
X104950000Y-96925000D02*
X103950000Y-96925000D01*
X103950000Y-95575000D02*
X104950000Y-95575000D01*
X101200000Y-95575000D02*
X102200000Y-95575000D01*
X102200000Y-96925000D02*
X101200000Y-96925000D01*
X101200000Y-97325000D02*
X102200000Y-97325000D01*
X102200000Y-98675000D02*
X101200000Y-98675000D01*
X103950000Y-97325000D02*
X104950000Y-97325000D01*
X104950000Y-98675000D02*
X103950000Y-98675000D01*
X112375000Y-107000000D02*
X112375000Y-108000000D01*
X111025000Y-108000000D02*
X111025000Y-107000000D01*
X106950000Y-90425000D02*
X105950000Y-90425000D01*
X105950000Y-89075000D02*
X106950000Y-89075000D01*
X109450000Y-90425000D02*
X108450000Y-90425000D01*
X108450000Y-89075000D02*
X109450000Y-89075000D01*
X110025000Y-93000000D02*
X110025000Y-92000000D01*
X111375000Y-92000000D02*
X111375000Y-93000000D01*
X104025000Y-93000000D02*
X104025000Y-92000000D01*
X105375000Y-92000000D02*
X105375000Y-93000000D01*
X97825000Y-93900000D02*
X97825000Y-92900000D01*
X99175000Y-92900000D02*
X99175000Y-93900000D01*
X97825000Y-91400000D02*
X97825000Y-90400000D01*
X99175000Y-90400000D02*
X99175000Y-91400000D01*
X101525000Y-93900000D02*
X101525000Y-92900000D01*
X102875000Y-92900000D02*
X102875000Y-93900000D01*
X101525000Y-91400000D02*
X101525000Y-90400000D01*
X102875000Y-90400000D02*
X102875000Y-91400000D01*
X104700000Y-121025000D02*
X104200000Y-121025000D01*
X104200000Y-121975000D02*
X104700000Y-121975000D01*
X62950000Y-109675000D02*
X61950000Y-109675000D01*
X61950000Y-108325000D02*
X62950000Y-108325000D01*
D13*
X102440000Y-115780000D02*
X102440000Y-116220000D01*
X103460000Y-115780000D02*
X103460000Y-116220000D01*
X108690000Y-115780000D02*
X108690000Y-116220000D01*
X109710000Y-115780000D02*
X109710000Y-116220000D01*
D14*
X96790000Y-121850000D02*
X96790000Y-123150000D01*
X98610000Y-121850000D02*
X98610000Y-123150000D01*
D13*
X103750000Y-119400000D02*
X105600000Y-119400000D01*
X103750000Y-120600000D02*
X105600000Y-120600000D01*
X105600000Y-120600000D02*
X105600000Y-119400000D01*
D11*
X82075000Y-83150000D02*
X82775000Y-83150000D01*
X82775000Y-84350000D02*
X82075000Y-84350000D01*
X85825000Y-84350000D02*
X85125000Y-84350000D01*
X85125000Y-83150000D02*
X85825000Y-83150000D01*
X108425000Y-127000000D02*
X108425000Y-126500000D01*
X107475000Y-126500000D02*
X107475000Y-127000000D01*
X59450000Y-127025000D02*
X58950000Y-127025000D01*
X58950000Y-127975000D02*
X59450000Y-127975000D01*
X98825000Y-95650000D02*
X99525000Y-95650000D01*
X99525000Y-96850000D02*
X98825000Y-96850000D01*
X99575000Y-98600000D02*
X98875000Y-98600000D01*
X98875000Y-97400000D02*
X99575000Y-97400000D01*
X105600000Y-92000000D02*
X105600000Y-93000000D01*
X107300000Y-93000000D02*
X107300000Y-92000000D01*
X108100000Y-92000000D02*
X108100000Y-93000000D01*
X109800000Y-93000000D02*
X109800000Y-92000000D01*
X97500000Y-92700000D02*
X97500000Y-91700000D01*
X95800000Y-91700000D02*
X95800000Y-92700000D01*
X101200000Y-92650000D02*
X101200000Y-91650000D01*
X99500000Y-91650000D02*
X99500000Y-92650000D01*
X84200000Y-126475000D02*
X84700000Y-126475000D01*
X84700000Y-125525000D02*
X84200000Y-125525000D01*
D13*
X87110000Y-119360000D02*
X82530000Y-119360000D01*
X87870000Y-120120000D02*
X87110000Y-119360000D01*
X87110000Y-124690000D02*
X87870000Y-123930000D01*
X82530000Y-124690000D02*
X87110000Y-124690000D01*
X87870000Y-123930000D02*
X87870000Y-123140000D01*
X87870000Y-120120000D02*
X87870000Y-120910000D01*
X82530000Y-119360000D02*
X82530000Y-120910000D01*
X82530000Y-124690000D02*
X82530000Y-123140000D01*
D14*
X117450000Y-122000000D02*
X117450000Y-123000000D01*
X111450000Y-122000000D02*
X117450000Y-122000000D01*
X111450000Y-130500000D02*
X111450000Y-122000000D01*
X111450000Y-136500000D02*
X117450000Y-136500000D01*
X111450000Y-136500000D02*
X111450000Y-134250000D01*
X117450000Y-126500000D02*
X117450000Y-132250000D01*
X117450000Y-135750000D02*
X117450000Y-136500000D01*
X98700000Y-133500000D02*
X98700000Y-130000000D01*
X98700000Y-127250000D02*
X96450000Y-127250000D01*
X87950000Y-127250000D02*
X85700000Y-127250000D01*
X85700000Y-130000000D02*
X85700000Y-133500000D01*
D11*
X79180000Y-99130000D02*
X79480000Y-98830000D01*
X79180000Y-112830000D02*
X93180000Y-112830000D01*
X79180000Y-99130000D02*
X79180000Y-112830000D01*
X93180000Y-98830000D02*
X79480000Y-98830000D01*
X93180000Y-112830000D02*
X93180000Y-98830000D01*
D14*
X118050000Y-113550000D02*
X115050000Y-113550000D01*
X120300000Y-115300000D02*
X120300000Y-117300000D01*
X112800000Y-115300000D02*
X112800000Y-119300000D01*
X118050000Y-119050000D02*
X115050000Y-119050000D01*
X115050000Y-112300000D02*
X118050000Y-112300000D01*
X112800000Y-110550000D02*
X112800000Y-108550000D01*
X120300000Y-110550000D02*
X120300000Y-106550000D01*
X115050000Y-106800000D02*
X118050000Y-106800000D01*
D11*
X47725000Y-131875000D02*
X47725000Y-132375000D01*
X48675000Y-132375000D02*
X48675000Y-131875000D01*
D13*
X59700000Y-118750000D02*
X59700000Y-112750000D01*
X53700000Y-118750000D02*
X53700000Y-112750000D01*
D14*
X101610000Y-123150000D02*
X101610000Y-121850000D01*
X99790000Y-123150000D02*
X99790000Y-121850000D01*
X49800000Y-109160000D02*
X51100000Y-109160000D01*
X49800000Y-107340000D02*
X51100000Y-107340000D01*
D13*
X48490000Y-120363748D02*
X48490000Y-123136252D01*
X51910000Y-120363748D02*
X51910000Y-123136252D01*
D14*
X53650000Y-120600000D02*
X58700000Y-120600000D01*
X53650000Y-124400000D02*
X58700000Y-124400000D01*
X53650000Y-124400000D02*
X53650000Y-120600000D01*
D13*
X47290000Y-128900000D02*
X47290000Y-127600000D01*
X49110000Y-128900000D02*
X49110000Y-127600000D01*
X114640000Y-101370000D02*
X119220000Y-101370000D01*
X113880000Y-100610000D02*
X114640000Y-101370000D01*
X114640000Y-96040000D02*
X113880000Y-96800000D01*
X119220000Y-96040000D02*
X114640000Y-96040000D01*
X113880000Y-96800000D02*
X113880000Y-97590000D01*
X113880000Y-100610000D02*
X113880000Y-99820000D01*
X119220000Y-101370000D02*
X119220000Y-99820000D01*
X119220000Y-96040000D02*
X119220000Y-97590000D01*
X114640000Y-94790000D02*
X119220000Y-94790000D01*
X113880000Y-94030000D02*
X114640000Y-94790000D01*
X114640000Y-89460000D02*
X113880000Y-90220000D01*
X119220000Y-89460000D02*
X114640000Y-89460000D01*
X113880000Y-90220000D02*
X113880000Y-91010000D01*
X113880000Y-94030000D02*
X113880000Y-93240000D01*
X119220000Y-94790000D02*
X119220000Y-93240000D01*
X119220000Y-89460000D02*
X119220000Y-91010000D01*
X47810000Y-111840000D02*
X47810000Y-116420000D01*
X48570000Y-111080000D02*
X47810000Y-111840000D01*
X53140000Y-111840000D02*
X52380000Y-111080000D01*
X53140000Y-116420000D02*
X53140000Y-111840000D01*
X52380000Y-111080000D02*
X51590000Y-111080000D01*
X48570000Y-111080000D02*
X49360000Y-111080000D01*
X47810000Y-116420000D02*
X49360000Y-116420000D01*
X53140000Y-116420000D02*
X51590000Y-116420000D01*
X53090000Y-104660000D02*
X53090000Y-100080000D01*
X52330000Y-105420000D02*
X53090000Y-104660000D01*
X47760000Y-104660000D02*
X48520000Y-105420000D01*
X47760000Y-100080000D02*
X47760000Y-104660000D01*
X48520000Y-105420000D02*
X49310000Y-105420000D01*
X52330000Y-105420000D02*
X51540000Y-105420000D01*
X53090000Y-100080000D02*
X51540000Y-100080000D01*
X47760000Y-100080000D02*
X49310000Y-100080000D01*
X58000000Y-100010000D02*
X60450000Y-100010000D01*
X59800000Y-96790000D02*
X58000000Y-96790000D01*
D11*
X58650000Y-101375000D02*
X59150000Y-101375000D01*
X59150000Y-100425000D02*
X58650000Y-100425000D01*
X55550000Y-106225000D02*
X55550000Y-105525000D01*
X56750000Y-105525000D02*
X56750000Y-106225000D01*
X64850000Y-117525000D02*
X64850000Y-116825000D01*
X66050000Y-116825000D02*
X66050000Y-117525000D01*
D13*
X58000000Y-109510000D02*
X60450000Y-109510000D01*
X59800000Y-106290000D02*
X58000000Y-106290000D01*
D11*
X62200000Y-110975000D02*
X62700000Y-110975000D01*
X62700000Y-110025000D02*
X62200000Y-110025000D01*
X62200000Y-112225000D02*
X62700000Y-112225000D01*
X62700000Y-111275000D02*
X62200000Y-111275000D01*
X56750000Y-108075000D02*
X56750000Y-108775000D01*
X55550000Y-108775000D02*
X55550000Y-108075000D01*
X59375000Y-105750000D02*
X58425000Y-105750000D01*
X59375000Y-103550000D02*
X58425000Y-103550000D01*
X92625000Y-113700000D02*
X92625000Y-114200000D01*
X93575000Y-114200000D02*
X93575000Y-113700000D01*
X95375000Y-114850000D02*
X94875000Y-114850000D01*
X94875000Y-115800000D02*
X95375000Y-115800000D01*
X94350000Y-116275000D02*
X94350000Y-116775000D01*
X95300000Y-116775000D02*
X95300000Y-116275000D01*
X65300000Y-102225000D02*
X64800000Y-102225000D01*
X64800000Y-103175000D02*
X65300000Y-103175000D01*
X64800000Y-105225000D02*
X65300000Y-105225000D01*
X65300000Y-104275000D02*
X64800000Y-104275000D01*
X64800000Y-106225000D02*
X65300000Y-106225000D01*
X65300000Y-105275000D02*
X64800000Y-105275000D01*
X87300000Y-113250000D02*
X87700000Y-113250000D01*
X87700000Y-114650000D02*
X87300000Y-114650000D01*
X75680000Y-99330000D02*
X74930000Y-99330000D01*
X66680000Y-112330000D02*
X67430000Y-112330000D01*
X74930000Y-112480000D02*
X67430000Y-112480000D01*
X74930000Y-99180000D02*
X74930000Y-112480000D01*
X67430000Y-99180000D02*
X74930000Y-99180000D01*
X67430000Y-112480000D02*
X67430000Y-99180000D01*
X75680000Y-111830000D02*
X75180000Y-112330000D01*
X67430000Y-99330000D02*
X66680000Y-99330000D01*
X75680000Y-111830000D02*
X75680000Y-99330000D01*
X74930000Y-112330000D02*
X75180000Y-112330000D01*
X66680000Y-99330000D02*
X66680000Y-112330000D01*
X59375000Y-96250000D02*
X58425000Y-96250000D01*
X59375000Y-94050000D02*
X58425000Y-94050000D01*
X58575000Y-102050000D02*
X59275000Y-102050000D01*
X59275000Y-103250000D02*
X58575000Y-103250000D01*
X87825000Y-115400000D02*
X87825000Y-115900000D01*
X88775000Y-115900000D02*
X88775000Y-115400000D01*
X86275000Y-115400000D02*
X86275000Y-115900000D01*
X87225000Y-115900000D02*
X87225000Y-115400000D01*
X56475000Y-103250000D02*
X55775000Y-103250000D01*
X55775000Y-102050000D02*
X56475000Y-102050000D01*
M02*
