%TF.GenerationSoftware,KiCad,Pcbnew,(6.0.1-0)*%
%TF.CreationDate,2022-12-27T13:33:36-05:00*%
%TF.ProjectId,EX-PCB-10108-001,45582d50-4342-42d3-9130-3130382d3030,A*%
%TF.SameCoordinates,Original*%
%TF.FileFunction,Paste,Top*%
%TF.FilePolarity,Positive*%
%FSLAX46Y46*%
G04 Gerber Fmt 4.6, Leading zero omitted, Abs format (unit mm)*
G04 Created by KiCad (PCBNEW (6.0.1-0)) date 2022-12-27 13:33:36*
%MOMM*%
%LPD*%
G01*
G04 APERTURE LIST*
G04 Aperture macros list*
%AMRoundRect*
0 Rectangle with rounded corners*
0 $1 Rounding radius*
0 $2 $3 $4 $5 $6 $7 $8 $9 X,Y pos of 4 corners*
0 Add a 4 corners polygon primitive as box body*
4,1,4,$2,$3,$4,$5,$6,$7,$8,$9,$2,$3,0*
0 Add four circle primitives for the rounded corners*
1,1,$1+$1,$2,$3*
1,1,$1+$1,$4,$5*
1,1,$1+$1,$6,$7*
1,1,$1+$1,$8,$9*
0 Add four rect primitives between the rounded corners*
20,1,$1+$1,$2,$3,$4,$5,0*
20,1,$1+$1,$4,$5,$6,$7,0*
20,1,$1+$1,$6,$7,$8,$9,0*
20,1,$1+$1,$8,$9,$2,$3,0*%
%AMFreePoly0*
4,1,48,0.083774,0.269420,0.092342,0.270777,0.114772,0.259348,0.138717,0.251568,0.143817,0.244549,0.151545,0.240611,0.240611,0.151546,0.244550,0.143816,0.251568,0.138717,0.259348,0.114773,0.270777,0.092342,0.269420,0.083774,0.272101,0.075523,0.272101,-0.164589,0.266839,-0.180784,0.266839,-0.197812,0.256830,-0.211588,0.251568,-0.227783,0.237792,-0.237792,0.227783,-0.251568,
0.211588,-0.256830,0.197812,-0.266839,0.180784,-0.266839,0.164589,-0.272101,-0.164589,-0.272101,-0.180784,-0.266839,-0.197812,-0.266839,-0.211588,-0.256830,-0.227783,-0.251568,-0.237792,-0.237792,-0.251568,-0.227783,-0.256830,-0.211588,-0.266839,-0.197812,-0.266839,-0.180784,-0.272101,-0.164589,-0.272101,0.164589,-0.266839,0.180784,-0.266839,0.197812,-0.256830,0.211588,-0.251568,0.227783,
-0.237792,0.237792,-0.227783,0.251568,-0.211588,0.256830,-0.197812,0.266839,-0.180784,0.266839,-0.164589,0.272101,0.075523,0.272101,0.083774,0.269420,0.083774,0.269420,$1*%
%AMFreePoly1*
4,1,48,0.180784,0.266839,0.197812,0.266839,0.211588,0.256830,0.227783,0.251568,0.237792,0.237792,0.251568,0.227783,0.256830,0.211588,0.266839,0.197812,0.266839,0.180784,0.272101,0.164589,0.272101,-0.075523,0.269420,-0.083774,0.270777,-0.092342,0.259348,-0.114773,0.251568,-0.138717,0.244550,-0.143816,0.240611,-0.151546,0.151545,-0.240611,0.143817,-0.244549,0.138717,-0.251568,
0.114772,-0.259348,0.092342,-0.270777,0.083774,-0.269420,0.075523,-0.272101,-0.164589,-0.272101,-0.180784,-0.266839,-0.197812,-0.266839,-0.211588,-0.256830,-0.227783,-0.251568,-0.237792,-0.237792,-0.251568,-0.227783,-0.256830,-0.211588,-0.266839,-0.197812,-0.266839,-0.180784,-0.272101,-0.164589,-0.272101,0.164589,-0.266839,0.180784,-0.266839,0.197812,-0.256830,0.211588,-0.251568,0.227783,
-0.237792,0.237792,-0.227783,0.251568,-0.211588,0.256830,-0.197812,0.266839,-0.180784,0.266839,-0.164589,0.272101,0.164589,0.272101,0.180784,0.266839,0.180784,0.266839,$1*%
%AMFreePoly2*
4,1,51,0.197929,0.401159,0.201658,0.401817,0.204937,0.399924,0.216011,0.397971,0.232977,0.383735,0.252157,0.372661,0.254788,0.365433,0.260680,0.360489,0.264526,0.338678,0.272101,0.317866,0.272101,-0.317866,0.270148,-0.328940,0.270806,-0.332669,0.268913,-0.335948,0.266960,-0.347022,0.252724,-0.363988,0.241650,-0.383168,0.234422,-0.385799,0.229478,-0.391691,0.207667,-0.395537,
0.186855,-0.403112,-0.116234,-0.403112,-0.121446,-0.402193,-0.123663,-0.402787,-0.127060,-0.401203,-0.145390,-0.397971,-0.159647,-0.386008,-0.176512,-0.378144,-0.247133,-0.307524,-0.250168,-0.303189,-0.252157,-0.302041,-0.253439,-0.298518,-0.264114,-0.283273,-0.265736,-0.264734,-0.272101,-0.247246,-0.272101,0.247246,-0.271182,0.252459,-0.271776,0.254676,-0.270192,0.258073,-0.266960,0.276402,
-0.254997,0.290658,-0.247133,0.307524,-0.176512,0.378144,-0.172177,0.381179,-0.171029,0.383168,-0.167505,0.384451,-0.152260,0.395125,-0.133722,0.396747,-0.116234,0.403112,0.186855,0.403112,0.197929,0.401159,0.197929,0.401159,$1*%
%AMFreePoly3*
4,1,51,0.252459,0.271182,0.254676,0.271776,0.258073,0.270192,0.276402,0.266960,0.290658,0.254997,0.307524,0.247133,0.378144,0.176512,0.381179,0.172177,0.383168,0.171029,0.384451,0.167505,0.395125,0.152260,0.396747,0.133722,0.403112,0.116234,0.403112,-0.186855,0.401159,-0.197929,0.401817,-0.201658,0.399924,-0.204937,0.397971,-0.216011,0.383735,-0.232977,0.372661,-0.252157,
0.365433,-0.254788,0.360489,-0.260680,0.338678,-0.264526,0.317866,-0.272101,-0.317866,-0.272101,-0.328940,-0.270148,-0.332669,-0.270806,-0.335948,-0.268913,-0.347022,-0.266960,-0.363988,-0.252724,-0.383168,-0.241650,-0.385799,-0.234422,-0.391691,-0.229478,-0.395537,-0.207667,-0.403112,-0.186855,-0.403112,0.116234,-0.402193,0.121446,-0.402787,0.123663,-0.401203,0.127060,-0.397971,0.145390,
-0.386008,0.159647,-0.378144,0.176512,-0.307525,0.247132,-0.303189,0.250168,-0.302041,0.252157,-0.298517,0.253440,-0.283273,0.264114,-0.264734,0.265736,-0.247246,0.272101,0.247246,0.272101,0.252459,0.271182,0.252459,0.271182,$1*%
%AMFreePoly4*
4,1,51,0.328940,0.270148,0.332669,0.270806,0.335948,0.268913,0.347022,0.266960,0.363988,0.252724,0.383168,0.241650,0.385799,0.234422,0.391691,0.229478,0.395537,0.207667,0.403112,0.186855,0.403112,-0.116234,0.402193,-0.121446,0.402787,-0.123663,0.401203,-0.127060,0.397971,-0.145390,0.386008,-0.159647,0.378144,-0.176512,0.307524,-0.247133,0.303189,-0.250168,0.302041,-0.252157,
0.298518,-0.253439,0.283273,-0.264114,0.264734,-0.265736,0.247246,-0.272101,-0.247246,-0.272101,-0.252459,-0.271182,-0.254677,-0.271776,-0.258075,-0.270192,-0.276402,-0.266960,-0.290659,-0.254997,-0.307525,-0.247132,-0.378144,-0.176512,-0.381179,-0.172177,-0.383168,-0.171029,-0.384451,-0.167505,-0.395125,-0.152260,-0.396747,-0.133722,-0.403112,-0.116234,-0.403112,0.186855,-0.401159,0.197929,
-0.401817,0.201658,-0.399924,0.204937,-0.397971,0.216011,-0.383735,0.232977,-0.372661,0.252157,-0.365433,0.254788,-0.360489,0.260680,-0.338678,0.264526,-0.317866,0.272101,0.317866,0.272101,0.328940,0.270148,0.328940,0.270148,$1*%
%AMFreePoly5*
4,1,48,0.180784,0.266839,0.197812,0.266839,0.211588,0.256830,0.227783,0.251568,0.237792,0.237792,0.251568,0.227783,0.256830,0.211588,0.266839,0.197812,0.266839,0.180784,0.272101,0.164589,0.272101,-0.164589,0.266839,-0.180784,0.266839,-0.197812,0.256830,-0.211588,0.251568,-0.227783,0.237792,-0.237792,0.227783,-0.251568,0.211588,-0.256830,0.197812,-0.266839,0.180784,-0.266839,
0.164589,-0.272101,-0.164589,-0.272101,-0.180784,-0.266839,-0.197812,-0.266839,-0.211588,-0.256830,-0.227783,-0.251568,-0.237792,-0.237792,-0.251568,-0.227783,-0.256830,-0.211588,-0.266839,-0.197812,-0.266839,-0.180784,-0.272101,-0.164589,-0.272101,0.075523,-0.269420,0.083774,-0.270777,0.092342,-0.259348,0.114772,-0.251568,0.138717,-0.244549,0.143817,-0.240611,0.151545,-0.151546,0.240611,
-0.143816,0.244550,-0.138717,0.251568,-0.114773,0.259348,-0.092342,0.270777,-0.083774,0.269420,-0.075523,0.272101,0.164589,0.272101,0.180784,0.266839,0.180784,0.266839,$1*%
%AMFreePoly6*
4,1,51,0.121446,0.402193,0.123663,0.402787,0.127060,0.401203,0.145390,0.397971,0.159647,0.386008,0.176512,0.378144,0.247132,0.307525,0.250168,0.303189,0.252157,0.302041,0.253440,0.298517,0.264114,0.283273,0.265736,0.264734,0.272101,0.247246,0.272101,-0.247246,0.271182,-0.252459,0.271776,-0.254677,0.270192,-0.258075,0.266960,-0.276402,0.254997,-0.290659,0.247132,-0.307525,
0.176512,-0.378144,0.172177,-0.381179,0.171029,-0.383168,0.167505,-0.384451,0.152260,-0.395125,0.133722,-0.396747,0.116234,-0.403112,-0.186855,-0.403112,-0.197929,-0.401159,-0.201658,-0.401817,-0.204937,-0.399924,-0.216011,-0.397971,-0.232977,-0.383735,-0.252157,-0.372661,-0.254788,-0.365433,-0.260680,-0.360489,-0.264526,-0.338678,-0.272101,-0.317866,-0.272101,0.317866,-0.270148,0.328940,
-0.270806,0.332669,-0.268913,0.335948,-0.266960,0.347022,-0.252724,0.363988,-0.241650,0.383168,-0.234422,0.385799,-0.229478,0.391691,-0.207667,0.395537,-0.186855,0.403112,0.116234,0.403112,0.121446,0.402193,0.121446,0.402193,$1*%
%AMFreePoly7*
4,1,48,0.180784,0.266839,0.197812,0.266839,0.211588,0.256830,0.227783,0.251568,0.237792,0.237792,0.251568,0.227783,0.256830,0.211588,0.266839,0.197812,0.266839,0.180784,0.272101,0.164589,0.272101,-0.164589,0.266839,-0.180784,0.266839,-0.197812,0.256830,-0.211588,0.251568,-0.227783,0.237792,-0.237792,0.227783,-0.251568,0.211588,-0.256830,0.197812,-0.266839,0.180784,-0.266839,
0.164589,-0.272101,-0.075523,-0.272101,-0.083774,-0.269420,-0.092342,-0.270777,-0.114773,-0.259348,-0.138717,-0.251568,-0.143816,-0.244550,-0.151546,-0.240611,-0.240611,-0.151545,-0.244549,-0.143817,-0.251568,-0.138717,-0.259348,-0.114772,-0.270777,-0.092342,-0.269420,-0.083774,-0.272101,-0.075523,-0.272101,0.164589,-0.266839,0.180784,-0.266839,0.197812,-0.256830,0.211588,-0.251568,0.227783,
-0.237792,0.237792,-0.227783,0.251568,-0.211588,0.256830,-0.197812,0.266839,-0.180784,0.266839,-0.164589,0.272101,0.164589,0.272101,0.180784,0.266839,0.180784,0.266839,$1*%
G04 Aperture macros list end*
%TA.AperFunction,Profile*%
%ADD10C,0.500000*%
%TD*%
%ADD11R,0.710000X0.810000*%
%ADD12R,0.510000X0.450000*%
%ADD13R,0.800000X2.000000*%
%ADD14C,0.350000*%
%ADD15R,0.700000X1.400000*%
%ADD16R,0.450000X0.510000*%
%ADD17R,0.810000X0.710000*%
%ADD18R,1.060000X0.500000*%
%ADD19R,1.600000X3.000000*%
%ADD20R,3.000000X1.600000*%
%ADD21R,1.800000X1.070000*%
%ADD22R,1.750000X2.000000*%
%ADD23RoundRect,0.388500X-1.311500X0.486500X-1.311500X-0.486500X1.311500X-0.486500X1.311500X0.486500X0*%
%ADD24R,1.070000X1.800000*%
%ADD25RoundRect,0.521250X0.521250X-1.308750X0.521250X1.308750X-0.521250X1.308750X-0.521250X-1.308750X0*%
%ADD26R,1.800000X1.800000*%
%ADD27R,1.250000X2.000000*%
%ADD28R,3.500000X2.000000*%
%ADD29R,2.550000X2.900000*%
%ADD30R,1.400000X1.900000*%
%ADD31R,1.800000X1.400000*%
%ADD32R,0.800000X1.500000*%
%ADD33R,0.550000X1.150000*%
%ADD34R,0.250000X1.150000*%
%ADD35O,1.050000X2.100000*%
%ADD36O,1.000000X2.000000*%
%ADD37R,0.900000X0.800000*%
%ADD38R,1.250000X1.000000*%
%ADD39R,0.600000X0.700000*%
%ADD40R,1.250000X1.150000*%
%ADD41RoundRect,0.201556X0.201557X-0.201557X0.201557X0.201557X-0.201557X0.201557X-0.201557X-0.201557X0*%
%ADD42FreePoly0,90.000000*%
%ADD43FreePoly1,90.000000*%
%ADD44FreePoly2,90.000000*%
%ADD45FreePoly3,90.000000*%
%ADD46FreePoly4,90.000000*%
%ADD47FreePoly5,90.000000*%
%ADD48FreePoly6,90.000000*%
%ADD49FreePoly7,90.000000*%
%ADD50RoundRect,0.062500X0.062500X-0.337500X0.062500X0.337500X-0.062500X0.337500X-0.062500X-0.337500X0*%
%ADD51RoundRect,0.062500X0.337500X-0.062500X0.337500X0.062500X-0.337500X0.062500X-0.337500X-0.062500X0*%
G04 APERTURE END LIST*
D10*
X46450000Y-85300000D02*
X46450000Y-132800000D01*
X46450000Y-132800000D02*
G75*
G03*
X50200000Y-136550000I3750001J1D01*
G01*
X126450000Y-85300000D02*
X126450000Y-132800000D01*
X121450000Y-85300000D02*
G75*
G03*
X117700000Y-81550000I-3750001J-1D01*
G01*
X121450000Y-85300000D02*
X121450000Y-132800000D01*
X121450000Y-132800000D02*
X126450000Y-132800000D01*
X117700000Y-136550000D02*
X50200000Y-136550000D01*
X41450000Y-132800000D02*
X46450000Y-132800000D01*
X117700000Y-136550000D02*
G75*
G03*
X121450000Y-132800000I-1J3750001D01*
G01*
X126450000Y-85300000D02*
X121450000Y-85300000D01*
X50200000Y-81550000D02*
G75*
G03*
X46450000Y-85300000I1J-3750001D01*
G01*
X41450000Y-85300000D02*
X46450000Y-85300000D01*
X41450000Y-85300000D02*
X41450000Y-132800000D01*
X117700000Y-81550000D02*
X50200000Y-81550000D01*
D11*
X56795000Y-102650000D03*
X55505000Y-102650000D03*
D12*
X86750000Y-115275000D03*
X86750000Y-116025000D03*
X88300000Y-115275000D03*
X88300000Y-116025000D03*
D11*
X58255000Y-102650000D03*
X59545000Y-102650000D03*
D13*
X59900000Y-104650000D03*
X57900000Y-104650000D03*
X59900000Y-95150000D03*
X57900000Y-95150000D03*
D14*
X74380000Y-111830000D03*
X73580000Y-111830000D03*
X72780000Y-111830000D03*
X69580000Y-111830000D03*
X68780000Y-111830000D03*
X67980000Y-111830000D03*
X74380000Y-111030000D03*
X73580000Y-111030000D03*
X72780000Y-111030000D03*
X69580000Y-111030000D03*
X68780000Y-111030000D03*
X67980000Y-111030000D03*
X74380000Y-110230000D03*
X73580000Y-110230000D03*
X72780000Y-110230000D03*
X69580000Y-110230000D03*
X68780000Y-110230000D03*
X67980000Y-110230000D03*
X74380000Y-109430000D03*
X73580000Y-109430000D03*
X72780000Y-109430000D03*
X69580000Y-109430000D03*
X68780000Y-109430000D03*
X67980000Y-109430000D03*
X74380000Y-108630000D03*
X73580000Y-108630000D03*
X72780000Y-108630000D03*
X69580000Y-108630000D03*
X68780000Y-108630000D03*
X67980000Y-108630000D03*
X74380000Y-107830000D03*
X73580000Y-107830000D03*
X72780000Y-107830000D03*
X69580000Y-107830000D03*
X68780000Y-107830000D03*
X67980000Y-107830000D03*
X74380000Y-107030000D03*
X73580000Y-107030000D03*
X72780000Y-107030000D03*
X69580000Y-107030000D03*
X68780000Y-107030000D03*
X67980000Y-107030000D03*
X74380000Y-106230000D03*
X73580000Y-106230000D03*
X72780000Y-106230000D03*
X69580000Y-106230000D03*
X68780000Y-106230000D03*
X67980000Y-106230000D03*
X74380000Y-105430000D03*
X73580000Y-105430000D03*
X72780000Y-105430000D03*
X69580000Y-105430000D03*
X68780000Y-105430000D03*
X67980000Y-105430000D03*
X74380000Y-104630000D03*
X73580000Y-104630000D03*
X72780000Y-104630000D03*
X69580000Y-104630000D03*
X68780000Y-104630000D03*
X67980000Y-104630000D03*
X74380000Y-103830000D03*
X73580000Y-103830000D03*
X72780000Y-103830000D03*
X69580000Y-103830000D03*
X68780000Y-103830000D03*
X67980000Y-103830000D03*
X74380000Y-103030000D03*
X73580000Y-103030000D03*
X72780000Y-103030000D03*
X69580000Y-103030000D03*
X68780000Y-103030000D03*
X67980000Y-103030000D03*
X74380000Y-102230000D03*
X73580000Y-102230000D03*
X72780000Y-102230000D03*
X69580000Y-102230000D03*
X68780000Y-102230000D03*
X67980000Y-102230000D03*
X74380000Y-101430000D03*
X73580000Y-101430000D03*
X72780000Y-101430000D03*
X69580000Y-101430000D03*
X68780000Y-101430000D03*
X67980000Y-101430000D03*
X74380000Y-100630000D03*
X73580000Y-100630000D03*
X72780000Y-100630000D03*
X69580000Y-100630000D03*
X68780000Y-100630000D03*
X67980000Y-100630000D03*
X74380000Y-99830000D03*
X73580000Y-99830000D03*
X72780000Y-99830000D03*
X69580000Y-99830000D03*
X68780000Y-99830000D03*
X67980000Y-99830000D03*
D15*
X86750000Y-113950000D03*
X88250000Y-113950000D03*
D16*
X65425000Y-105750000D03*
X64675000Y-105750000D03*
X65425000Y-104750000D03*
X64675000Y-104750000D03*
X64675000Y-102700000D03*
X65425000Y-102700000D03*
D12*
X94825000Y-116900000D03*
X94825000Y-116150000D03*
D16*
X94750000Y-115325000D03*
X95500000Y-115325000D03*
D12*
X93100000Y-114325000D03*
X93100000Y-113575000D03*
D17*
X56150000Y-107755000D03*
X56150000Y-109045000D03*
D16*
X62075000Y-111750000D03*
X62825000Y-111750000D03*
X62825000Y-110500000D03*
X62075000Y-110500000D03*
D18*
X60000000Y-108850000D03*
X60000000Y-107900000D03*
X60000000Y-106950000D03*
X57800000Y-106950000D03*
X57800000Y-108850000D03*
D17*
X65450000Y-117845000D03*
X65450000Y-116555000D03*
X56150000Y-106545000D03*
X56150000Y-105255000D03*
D16*
X59275000Y-100900000D03*
X58525000Y-100900000D03*
D18*
X60000000Y-99350000D03*
X60000000Y-98400000D03*
X60000000Y-97450000D03*
X57800000Y-97450000D03*
X57800000Y-99350000D03*
D19*
X50350000Y-104900000D03*
X50350000Y-109300000D03*
X50450000Y-98000000D03*
X50450000Y-93600000D03*
D16*
X112075000Y-113000000D03*
X111325000Y-113000000D03*
D20*
X114350000Y-98730000D03*
X118750000Y-98730000D03*
D21*
X48200000Y-129755000D03*
X48200000Y-126745000D03*
D16*
X116325000Y-104750000D03*
X117075000Y-104750000D03*
X112075000Y-111750000D03*
X111325000Y-111750000D03*
X111325000Y-114250000D03*
X112075000Y-114250000D03*
X116325000Y-120750000D03*
X115575000Y-120750000D03*
D22*
X54850000Y-122500000D03*
X59050000Y-122500000D03*
D23*
X50200000Y-119300000D03*
X50200000Y-124200000D03*
D24*
X51305000Y-101400000D03*
X48295000Y-101400000D03*
D21*
X100700000Y-124005000D03*
X100700000Y-120995000D03*
D25*
X55300000Y-118125000D03*
X58100000Y-118125000D03*
X58100000Y-113375000D03*
X55300000Y-113375000D03*
D12*
X48200000Y-131750000D03*
X48200000Y-132500000D03*
D26*
X119090000Y-107455000D03*
X114010000Y-107455000D03*
X114010000Y-111645000D03*
X119090000Y-111645000D03*
X114010000Y-118395000D03*
X119090000Y-118395000D03*
X119090000Y-114205000D03*
X114010000Y-114205000D03*
D16*
X101075000Y-108750000D03*
X101825000Y-108750000D03*
X97575000Y-108750000D03*
X98325000Y-108750000D03*
D14*
X79780000Y-99430000D03*
X80580000Y-99430000D03*
X81380000Y-99430000D03*
X82180000Y-99430000D03*
X82980000Y-99430000D03*
X83780000Y-99430000D03*
X84580000Y-99430000D03*
X85380000Y-99430000D03*
X86180000Y-99430000D03*
X86980000Y-99430000D03*
X87780000Y-99430000D03*
X88580000Y-99430000D03*
X89380000Y-99430000D03*
X90180000Y-99430000D03*
X90980000Y-99430000D03*
X91780000Y-99430000D03*
X92580000Y-99430000D03*
X79780000Y-100230000D03*
X80580000Y-100230000D03*
X81380000Y-100230000D03*
X82180000Y-100230000D03*
X82980000Y-100230000D03*
X83780000Y-100230000D03*
X84580000Y-100230000D03*
X85380000Y-100230000D03*
X86180000Y-100230000D03*
X86980000Y-100230000D03*
X87780000Y-100230000D03*
X88580000Y-100230000D03*
X89380000Y-100230000D03*
X90180000Y-100230000D03*
X90980000Y-100230000D03*
X91780000Y-100230000D03*
X92580000Y-100230000D03*
X79780000Y-101030000D03*
X80580000Y-101030000D03*
X81380000Y-101030000D03*
X82180000Y-101030000D03*
X82980000Y-101030000D03*
X83780000Y-101030000D03*
X84580000Y-101030000D03*
X85380000Y-101030000D03*
X86180000Y-101030000D03*
X86980000Y-101030000D03*
X87780000Y-101030000D03*
X88580000Y-101030000D03*
X89380000Y-101030000D03*
X90180000Y-101030000D03*
X90980000Y-101030000D03*
X91780000Y-101030000D03*
X92580000Y-101030000D03*
X79780000Y-101830000D03*
X80580000Y-101830000D03*
X81380000Y-101830000D03*
X82180000Y-101830000D03*
X82980000Y-101830000D03*
X83780000Y-101830000D03*
X84580000Y-101830000D03*
X85380000Y-101830000D03*
X86180000Y-101830000D03*
X86980000Y-101830000D03*
X87780000Y-101830000D03*
X88580000Y-101830000D03*
X89380000Y-101830000D03*
X90180000Y-101830000D03*
X90980000Y-101830000D03*
X91780000Y-101830000D03*
X92580000Y-101830000D03*
X79780000Y-102630000D03*
X80580000Y-102630000D03*
X81380000Y-102630000D03*
X82180000Y-102630000D03*
X82980000Y-102630000D03*
X83780000Y-102630000D03*
X84580000Y-102630000D03*
X85380000Y-102630000D03*
X86180000Y-102630000D03*
X86980000Y-102630000D03*
X87780000Y-102630000D03*
X88580000Y-102630000D03*
X89380000Y-102630000D03*
X90180000Y-102630000D03*
X90980000Y-102630000D03*
X91780000Y-102630000D03*
X92580000Y-102630000D03*
X79780000Y-103430000D03*
X80580000Y-103430000D03*
X81380000Y-103430000D03*
X82180000Y-103430000D03*
X82980000Y-103430000D03*
X83780000Y-103430000D03*
X84580000Y-103430000D03*
X85380000Y-103430000D03*
X86180000Y-103430000D03*
X86980000Y-103430000D03*
X87780000Y-103430000D03*
X88580000Y-103430000D03*
X89380000Y-103430000D03*
X90180000Y-103430000D03*
X90980000Y-103430000D03*
X91780000Y-103430000D03*
X92580000Y-103430000D03*
X79780000Y-104230000D03*
X80580000Y-104230000D03*
X81380000Y-104230000D03*
X82180000Y-104230000D03*
X82980000Y-104230000D03*
X83780000Y-104230000D03*
X84580000Y-104230000D03*
X85380000Y-104230000D03*
X86180000Y-104230000D03*
X86980000Y-104230000D03*
X87780000Y-104230000D03*
X88580000Y-104230000D03*
X89380000Y-104230000D03*
X90180000Y-104230000D03*
X90980000Y-104230000D03*
X91780000Y-104230000D03*
X92580000Y-104230000D03*
X79780000Y-105030000D03*
X80580000Y-105030000D03*
X81380000Y-105030000D03*
X82180000Y-105030000D03*
X82980000Y-105030000D03*
X83780000Y-105030000D03*
X84580000Y-105030000D03*
X85380000Y-105030000D03*
X86180000Y-105030000D03*
X86980000Y-105030000D03*
X87780000Y-105030000D03*
X88580000Y-105030000D03*
X89380000Y-105030000D03*
X90180000Y-105030000D03*
X90980000Y-105030000D03*
X91780000Y-105030000D03*
X92580000Y-105030000D03*
X79780000Y-105830000D03*
X80580000Y-105830000D03*
X81380000Y-105830000D03*
X82180000Y-105830000D03*
X82980000Y-105830000D03*
X83780000Y-105830000D03*
X84580000Y-105830000D03*
X85380000Y-105830000D03*
X86180000Y-105830000D03*
X86980000Y-105830000D03*
X87780000Y-105830000D03*
X88580000Y-105830000D03*
X89380000Y-105830000D03*
X90180000Y-105830000D03*
X90980000Y-105830000D03*
X91780000Y-105830000D03*
X92580000Y-105830000D03*
X79780000Y-106630000D03*
X80580000Y-106630000D03*
X81380000Y-106630000D03*
X82180000Y-106630000D03*
X82980000Y-106630000D03*
X83780000Y-106630000D03*
X84580000Y-106630000D03*
X85380000Y-106630000D03*
X86180000Y-106630000D03*
X86980000Y-106630000D03*
X87780000Y-106630000D03*
X88580000Y-106630000D03*
X89380000Y-106630000D03*
X90180000Y-106630000D03*
X90980000Y-106630000D03*
X91780000Y-106630000D03*
X92580000Y-106630000D03*
X79780000Y-107430000D03*
X80580000Y-107430000D03*
X81380000Y-107430000D03*
X82180000Y-107430000D03*
X82980000Y-107430000D03*
X83780000Y-107430000D03*
X84580000Y-107430000D03*
X85380000Y-107430000D03*
X86180000Y-107430000D03*
X86980000Y-107430000D03*
X87780000Y-107430000D03*
X88580000Y-107430000D03*
X89380000Y-107430000D03*
X90180000Y-107430000D03*
X90980000Y-107430000D03*
X91780000Y-107430000D03*
X92580000Y-107430000D03*
X79780000Y-108230000D03*
X80580000Y-108230000D03*
X81380000Y-108230000D03*
X82180000Y-108230000D03*
X82980000Y-108230000D03*
X83780000Y-108230000D03*
X84580000Y-108230000D03*
X85380000Y-108230000D03*
X86180000Y-108230000D03*
X86980000Y-108230000D03*
X87780000Y-108230000D03*
X88580000Y-108230000D03*
X89380000Y-108230000D03*
X90180000Y-108230000D03*
X90980000Y-108230000D03*
X91780000Y-108230000D03*
X92580000Y-108230000D03*
X79780000Y-109030000D03*
X80580000Y-109030000D03*
X81380000Y-109030000D03*
X82180000Y-109030000D03*
X82980000Y-109030000D03*
X83780000Y-109030000D03*
X84580000Y-109030000D03*
X85380000Y-109030000D03*
X86180000Y-109030000D03*
X86980000Y-109030000D03*
X87780000Y-109030000D03*
X88580000Y-109030000D03*
X89380000Y-109030000D03*
X90180000Y-109030000D03*
X90980000Y-109030000D03*
X91780000Y-109030000D03*
X92580000Y-109030000D03*
X79780000Y-109830000D03*
X80580000Y-109830000D03*
X81380000Y-109830000D03*
X82180000Y-109830000D03*
X82980000Y-109830000D03*
X83780000Y-109830000D03*
X84580000Y-109830000D03*
X85380000Y-109830000D03*
X86180000Y-109830000D03*
X86980000Y-109830000D03*
X87780000Y-109830000D03*
X88580000Y-109830000D03*
X89380000Y-109830000D03*
X90180000Y-109830000D03*
X90980000Y-109830000D03*
X91780000Y-109830000D03*
X92580000Y-109830000D03*
X79780000Y-110630000D03*
X80580000Y-110630000D03*
X81380000Y-110630000D03*
X82180000Y-110630000D03*
X82980000Y-110630000D03*
X83780000Y-110630000D03*
X84580000Y-110630000D03*
X85380000Y-110630000D03*
X86180000Y-110630000D03*
X86980000Y-110630000D03*
X87780000Y-110630000D03*
X88580000Y-110630000D03*
X89380000Y-110630000D03*
X90180000Y-110630000D03*
X90980000Y-110630000D03*
X91780000Y-110630000D03*
X92580000Y-110630000D03*
X79780000Y-111430000D03*
X80580000Y-111430000D03*
X81380000Y-111430000D03*
X82180000Y-111430000D03*
X82980000Y-111430000D03*
X83780000Y-111430000D03*
X84580000Y-111430000D03*
X85380000Y-111430000D03*
X86180000Y-111430000D03*
X86980000Y-111430000D03*
X87780000Y-111430000D03*
X88580000Y-111430000D03*
X89380000Y-111430000D03*
X90180000Y-111430000D03*
X90980000Y-111430000D03*
X91780000Y-111430000D03*
X92580000Y-111430000D03*
X79780000Y-112230000D03*
X80580000Y-112230000D03*
X81380000Y-112230000D03*
X82180000Y-112230000D03*
X82980000Y-112230000D03*
X83780000Y-112230000D03*
X84580000Y-112230000D03*
X85380000Y-112230000D03*
X86180000Y-112230000D03*
X86980000Y-112230000D03*
X87780000Y-112230000D03*
X88580000Y-112230000D03*
X89380000Y-112230000D03*
X90180000Y-112230000D03*
X90980000Y-112230000D03*
X91780000Y-112230000D03*
X92580000Y-112230000D03*
D12*
X96450000Y-110625000D03*
X96450000Y-111375000D03*
D16*
X94575000Y-110500000D03*
X95325000Y-110500000D03*
D27*
X88700000Y-126550000D03*
X91200000Y-126550000D03*
X93200000Y-126550000D03*
X95700000Y-126550000D03*
D28*
X84575000Y-128650000D03*
X99825000Y-128650000D03*
X99825000Y-134750000D03*
X84575000Y-134750000D03*
D20*
X114350000Y-92150000D03*
X118750000Y-92150000D03*
D29*
X110550000Y-132350000D03*
X117950000Y-124800000D03*
X117950000Y-134100000D03*
D30*
X80300000Y-135200000D03*
X67150000Y-134200000D03*
D31*
X74450000Y-121050000D03*
X68750000Y-121050000D03*
D32*
X75640000Y-131350000D03*
X74540000Y-130950000D03*
X73440000Y-131350000D03*
X72340000Y-131550000D03*
X71240000Y-131350000D03*
X70140000Y-131550000D03*
X69040000Y-131350000D03*
X67940000Y-131350000D03*
D11*
X61805000Y-109000000D03*
X63095000Y-109000000D03*
D16*
X87675000Y-118550000D03*
X88425000Y-118550000D03*
X86225000Y-118550000D03*
X85475000Y-118550000D03*
D20*
X87400000Y-122000000D03*
X83000000Y-122000000D03*
D16*
X84825000Y-126000000D03*
X84075000Y-126000000D03*
D33*
X51250000Y-129245000D03*
X52050000Y-129245000D03*
D34*
X53200000Y-129245000D03*
X54200000Y-129245000D03*
X54700000Y-129245000D03*
X55700000Y-129245000D03*
D33*
X57650000Y-129245000D03*
X56850000Y-129245000D03*
D34*
X56200000Y-129245000D03*
X55200000Y-129245000D03*
X53700000Y-129245000D03*
X52700000Y-129245000D03*
D35*
X58770000Y-129820000D03*
D36*
X50130000Y-134000000D03*
D35*
X50130000Y-129820000D03*
D36*
X58770000Y-134000000D03*
D16*
X65425000Y-101100000D03*
X64675000Y-101100000D03*
X65425000Y-100000000D03*
X64675000Y-100000000D03*
D12*
X94150000Y-113625000D03*
X94150000Y-114375000D03*
D37*
X92250000Y-116450000D03*
X93650000Y-115350000D03*
X92250000Y-115350000D03*
X93650000Y-116450000D03*
D12*
X92150000Y-114275000D03*
X92150000Y-113525000D03*
D38*
X100350000Y-93150000D03*
X100350000Y-91150000D03*
X96650000Y-93200000D03*
X96650000Y-91200000D03*
X108950000Y-91500000D03*
X108950000Y-93500000D03*
X106450000Y-91500000D03*
X106450000Y-93500000D03*
D11*
X98555000Y-98000000D03*
X99845000Y-98000000D03*
X99845000Y-96250000D03*
X98555000Y-96250000D03*
D16*
X58825000Y-127500000D03*
X59575000Y-127500000D03*
D12*
X107950000Y-126375000D03*
X107950000Y-127125000D03*
D11*
X84805000Y-83750000D03*
X86095000Y-83750000D03*
X83095000Y-83750000D03*
X81805000Y-83750000D03*
D39*
X105150000Y-120000000D03*
X103750000Y-120000000D03*
D21*
X97700000Y-120995000D03*
X97700000Y-124005000D03*
D40*
X109200000Y-115125000D03*
X109200000Y-116875000D03*
X102950000Y-115125000D03*
X102950000Y-116875000D03*
D16*
X104825000Y-121500000D03*
X104075000Y-121500000D03*
D17*
X102200000Y-90255000D03*
X102200000Y-91545000D03*
X102200000Y-92755000D03*
X102200000Y-94045000D03*
X98500000Y-90255000D03*
X98500000Y-91545000D03*
X98500000Y-92755000D03*
X98500000Y-94045000D03*
X104700000Y-91855000D03*
X104700000Y-93145000D03*
X110700000Y-91855000D03*
X110700000Y-93145000D03*
D11*
X108305000Y-89750000D03*
X109595000Y-89750000D03*
X105805000Y-89750000D03*
X107095000Y-89750000D03*
D17*
X111700000Y-108145000D03*
X111700000Y-106855000D03*
D11*
X105095000Y-98000000D03*
X103805000Y-98000000D03*
X102345000Y-98000000D03*
X101055000Y-98000000D03*
X102345000Y-96250000D03*
X101055000Y-96250000D03*
X103805000Y-96250000D03*
X105095000Y-96250000D03*
X98555000Y-99500000D03*
X99845000Y-99500000D03*
D12*
X83200000Y-85875000D03*
X83200000Y-85125000D03*
X84700000Y-85125000D03*
X84700000Y-85875000D03*
D18*
X105100000Y-112550000D03*
X105100000Y-113500000D03*
X105100000Y-114450000D03*
X107300000Y-114450000D03*
X107300000Y-112550000D03*
X98600000Y-112550000D03*
X98600000Y-113500000D03*
X98600000Y-114450000D03*
X100800000Y-114450000D03*
X100800000Y-112550000D03*
D41*
X102200000Y-104250000D03*
D42*
X104037500Y-106087500D03*
D43*
X101362500Y-106087500D03*
D44*
X102200000Y-103412500D03*
D45*
X104037500Y-105250000D03*
D46*
X101362500Y-105250000D03*
D41*
X103200000Y-104250000D03*
D45*
X104037500Y-104250000D03*
D47*
X104037500Y-103412500D03*
D46*
X101362500Y-104250000D03*
D48*
X102200000Y-106087500D03*
D44*
X103200000Y-103412500D03*
D41*
X102200000Y-105250000D03*
D48*
X103200000Y-106087500D03*
D41*
X103200000Y-105250000D03*
D49*
X101362500Y-103412500D03*
D50*
X101200000Y-107200000D03*
X101700000Y-107200000D03*
X102200000Y-107200000D03*
X102700000Y-107200000D03*
X103200000Y-107200000D03*
X103700000Y-107200000D03*
X104200000Y-107200000D03*
D51*
X105150000Y-106250000D03*
X105150000Y-105750000D03*
X105150000Y-105250000D03*
X105150000Y-104750000D03*
X105150000Y-104250000D03*
X105150000Y-103750000D03*
X105150000Y-103250000D03*
D50*
X104200000Y-102300000D03*
X103700000Y-102300000D03*
X103200000Y-102300000D03*
X102700000Y-102300000D03*
X102200000Y-102300000D03*
X101700000Y-102300000D03*
X101200000Y-102300000D03*
D51*
X100250000Y-103250000D03*
X100250000Y-103750000D03*
X100250000Y-104250000D03*
X100250000Y-104750000D03*
X100250000Y-105250000D03*
X100250000Y-105750000D03*
X100250000Y-106250000D03*
D16*
X107575000Y-106750000D03*
X106825000Y-106750000D03*
X107575000Y-108250000D03*
X106825000Y-108250000D03*
X106825000Y-103750000D03*
X107575000Y-103750000D03*
X106825000Y-104750000D03*
X107575000Y-104750000D03*
X73825000Y-89400000D03*
X74575000Y-89400000D03*
D11*
X98595000Y-106250000D03*
X97305000Y-106250000D03*
X98595000Y-104750000D03*
X97305000Y-104750000D03*
D17*
X110200000Y-104350000D03*
X110200000Y-103700000D03*
D12*
X86450000Y-97125000D03*
X86450000Y-97875000D03*
X87200000Y-95375000D03*
X87200000Y-96125000D03*
X87950000Y-97125000D03*
X87950000Y-97875000D03*
X88700000Y-95375000D03*
X88700000Y-96125000D03*
D16*
X82325000Y-93250000D03*
X83075000Y-93250000D03*
X85575000Y-93250000D03*
X84825000Y-93250000D03*
D12*
X73850000Y-91075000D03*
X73850000Y-90325000D03*
M02*
