%TF.GenerationSoftware,KiCad,Pcbnew,(6.0.1-0)*%
%TF.CreationDate,2022-12-27T13:33:37-05:00*%
%TF.ProjectId,EX-PCB-10108-001,45582d50-4342-42d3-9130-3130382d3030,A*%
%TF.SameCoordinates,Original*%
%TF.FileFunction,Legend,Bot*%
%TF.FilePolarity,Positive*%
%FSLAX46Y46*%
G04 Gerber Fmt 4.6, Leading zero omitted, Abs format (unit mm)*
G04 Created by KiCad (PCBNEW (6.0.1-0)) date 2022-12-27 13:33:37*
%MOMM*%
%LPD*%
G01*
G04 APERTURE LIST*
%TA.AperFunction,Profile*%
%ADD10C,0.500000*%
%TD*%
%ADD11C,0.300000*%
%ADD12C,0.150000*%
%ADD13C,0.120000*%
%ADD14C,0.100000*%
G04 APERTURE END LIST*
D10*
X46450000Y-85300000D02*
X46450000Y-132800000D01*
X46450000Y-132800000D02*
G75*
G03*
X50200000Y-136550000I3750001J1D01*
G01*
X126450000Y-85300000D02*
X126450000Y-132800000D01*
X121450000Y-85300000D02*
G75*
G03*
X117700000Y-81550000I-3750001J-1D01*
G01*
X121450000Y-85300000D02*
X121450000Y-132800000D01*
X121450000Y-132800000D02*
X126450000Y-132800000D01*
X117700000Y-136550000D02*
X50200000Y-136550000D01*
X41450000Y-132800000D02*
X46450000Y-132800000D01*
X117700000Y-136550000D02*
G75*
G03*
X121450000Y-132800000I-1J3750001D01*
G01*
X126450000Y-85300000D02*
X121450000Y-85300000D01*
X50200000Y-81550000D02*
G75*
G03*
X46450000Y-85300000I1J-3750001D01*
G01*
X41450000Y-85300000D02*
X46450000Y-85300000D01*
X41450000Y-85300000D02*
X41450000Y-132800000D01*
X117700000Y-81550000D02*
X50200000Y-81550000D01*
D11*
X118300000Y-93292857D02*
X117800000Y-93292857D01*
X117585714Y-94078571D02*
X118300000Y-94078571D01*
X118300000Y-92578571D01*
X117585714Y-92578571D01*
X117085714Y-92578571D02*
X116085714Y-94078571D01*
X116085714Y-92578571D02*
X117085714Y-94078571D01*
X115514285Y-93507142D02*
X114371428Y-93507142D01*
X113657142Y-94078571D02*
X113657142Y-92578571D01*
X113085714Y-92578571D01*
X112942857Y-92650000D01*
X112871428Y-92721428D01*
X112800000Y-92864285D01*
X112800000Y-93078571D01*
X112871428Y-93221428D01*
X112942857Y-93292857D01*
X113085714Y-93364285D01*
X113657142Y-93364285D01*
X111300000Y-93935714D02*
X111371428Y-94007142D01*
X111585714Y-94078571D01*
X111728571Y-94078571D01*
X111942857Y-94007142D01*
X112085714Y-93864285D01*
X112157142Y-93721428D01*
X112228571Y-93435714D01*
X112228571Y-93221428D01*
X112157142Y-92935714D01*
X112085714Y-92792857D01*
X111942857Y-92650000D01*
X111728571Y-92578571D01*
X111585714Y-92578571D01*
X111371428Y-92650000D01*
X111300000Y-92721428D01*
X110157142Y-93292857D02*
X109942857Y-93364285D01*
X109871428Y-93435714D01*
X109800000Y-93578571D01*
X109800000Y-93792857D01*
X109871428Y-93935714D01*
X109942857Y-94007142D01*
X110085714Y-94078571D01*
X110657142Y-94078571D01*
X110657142Y-92578571D01*
X110157142Y-92578571D01*
X110014285Y-92650000D01*
X109942857Y-92721428D01*
X109871428Y-92864285D01*
X109871428Y-93007142D01*
X109942857Y-93150000D01*
X110014285Y-93221428D01*
X110157142Y-93292857D01*
X110657142Y-93292857D01*
X109157142Y-93507142D02*
X108014285Y-93507142D01*
X106514285Y-94078571D02*
X107371428Y-94078571D01*
X106942857Y-94078571D02*
X106942857Y-92578571D01*
X107085714Y-92792857D01*
X107228571Y-92935714D01*
X107371428Y-93007142D01*
X105585714Y-92578571D02*
X105442857Y-92578571D01*
X105300000Y-92650000D01*
X105228571Y-92721428D01*
X105157142Y-92864285D01*
X105085714Y-93150000D01*
X105085714Y-93507142D01*
X105157142Y-93792857D01*
X105228571Y-93935714D01*
X105300000Y-94007142D01*
X105442857Y-94078571D01*
X105585714Y-94078571D01*
X105728571Y-94007142D01*
X105800000Y-93935714D01*
X105871428Y-93792857D01*
X105942857Y-93507142D01*
X105942857Y-93150000D01*
X105871428Y-92864285D01*
X105800000Y-92721428D01*
X105728571Y-92650000D01*
X105585714Y-92578571D01*
X103657142Y-94078571D02*
X104514285Y-94078571D01*
X104085714Y-94078571D02*
X104085714Y-92578571D01*
X104228571Y-92792857D01*
X104371428Y-92935714D01*
X104514285Y-93007142D01*
X102728571Y-92578571D02*
X102585714Y-92578571D01*
X102442857Y-92650000D01*
X102371428Y-92721428D01*
X102300000Y-92864285D01*
X102228571Y-93150000D01*
X102228571Y-93507142D01*
X102300000Y-93792857D01*
X102371428Y-93935714D01*
X102442857Y-94007142D01*
X102585714Y-94078571D01*
X102728571Y-94078571D01*
X102871428Y-94007142D01*
X102942857Y-93935714D01*
X103014285Y-93792857D01*
X103085714Y-93507142D01*
X103085714Y-93150000D01*
X103014285Y-92864285D01*
X102942857Y-92721428D01*
X102871428Y-92650000D01*
X102728571Y-92578571D01*
X101371428Y-93221428D02*
X101514285Y-93150000D01*
X101585714Y-93078571D01*
X101657142Y-92935714D01*
X101657142Y-92864285D01*
X101585714Y-92721428D01*
X101514285Y-92650000D01*
X101371428Y-92578571D01*
X101085714Y-92578571D01*
X100942857Y-92650000D01*
X100871428Y-92721428D01*
X100800000Y-92864285D01*
X100800000Y-92935714D01*
X100871428Y-93078571D01*
X100942857Y-93150000D01*
X101085714Y-93221428D01*
X101371428Y-93221428D01*
X101514285Y-93292857D01*
X101585714Y-93364285D01*
X101657142Y-93507142D01*
X101657142Y-93792857D01*
X101585714Y-93935714D01*
X101514285Y-94007142D01*
X101371428Y-94078571D01*
X101085714Y-94078571D01*
X100942857Y-94007142D01*
X100871428Y-93935714D01*
X100800000Y-93792857D01*
X100800000Y-93507142D01*
X100871428Y-93364285D01*
X100942857Y-93292857D01*
X101085714Y-93221428D01*
X100157142Y-93507142D02*
X99014285Y-93507142D01*
X98014285Y-92578571D02*
X97871428Y-92578571D01*
X97728571Y-92650000D01*
X97657142Y-92721428D01*
X97585714Y-92864285D01*
X97514285Y-93150000D01*
X97514285Y-93507142D01*
X97585714Y-93792857D01*
X97657142Y-93935714D01*
X97728571Y-94007142D01*
X97871428Y-94078571D01*
X98014285Y-94078571D01*
X98157142Y-94007142D01*
X98228571Y-93935714D01*
X98300000Y-93792857D01*
X98371428Y-93507142D01*
X98371428Y-93150000D01*
X98300000Y-92864285D01*
X98228571Y-92721428D01*
X98157142Y-92650000D01*
X98014285Y-92578571D01*
X96585714Y-92578571D02*
X96442857Y-92578571D01*
X96300000Y-92650000D01*
X96228571Y-92721428D01*
X96157142Y-92864285D01*
X96085714Y-93150000D01*
X96085714Y-93507142D01*
X96157142Y-93792857D01*
X96228571Y-93935714D01*
X96300000Y-94007142D01*
X96442857Y-94078571D01*
X96585714Y-94078571D01*
X96728571Y-94007142D01*
X96800000Y-93935714D01*
X96871428Y-93792857D01*
X96942857Y-93507142D01*
X96942857Y-93150000D01*
X96871428Y-92864285D01*
X96800000Y-92721428D01*
X96728571Y-92650000D01*
X96585714Y-92578571D01*
X94657142Y-94078571D02*
X95514285Y-94078571D01*
X95085714Y-94078571D02*
X95085714Y-92578571D01*
X95228571Y-92792857D01*
X95371428Y-92935714D01*
X95514285Y-93007142D01*
X94014285Y-93507142D02*
X92871428Y-93507142D01*
X92228571Y-93650000D02*
X91514285Y-93650000D01*
X92371428Y-94078571D02*
X91871428Y-92578571D01*
X91371428Y-94078571D01*
X90871428Y-93507142D02*
X89728571Y-93507142D01*
X88157142Y-94078571D02*
X88657142Y-93364285D01*
X89014285Y-94078571D02*
X89014285Y-92578571D01*
X88442857Y-92578571D01*
X88300000Y-92650000D01*
X88228571Y-92721428D01*
X88157142Y-92864285D01*
X88157142Y-93078571D01*
X88228571Y-93221428D01*
X88300000Y-93292857D01*
X88442857Y-93364285D01*
X89014285Y-93364285D01*
X86728571Y-94078571D02*
X87585714Y-94078571D01*
X87157142Y-94078571D02*
X87157142Y-92578571D01*
X87300000Y-92792857D01*
X87442857Y-92935714D01*
X87585714Y-93007142D01*
D12*
X66225000Y-111100000D02*
X65525000Y-111100000D01*
X65525000Y-112300000D02*
X66225000Y-112300000D01*
X87900000Y-110675000D02*
X87400000Y-110675000D01*
X87400000Y-109725000D02*
X87900000Y-109725000D01*
X88150000Y-104975000D02*
X88650000Y-104975000D01*
X88650000Y-105925000D02*
X88150000Y-105925000D01*
X89475000Y-108425000D02*
X89475000Y-107925000D01*
X90425000Y-107925000D02*
X90425000Y-108425000D01*
X86175000Y-105950000D02*
X86175000Y-105450000D01*
X87125000Y-105450000D02*
X87125000Y-105950000D01*
X86900000Y-107425000D02*
X86400000Y-107425000D01*
X86400000Y-106475000D02*
X86900000Y-106475000D01*
X90375000Y-112450000D02*
X90375000Y-112950000D01*
X89425000Y-112950000D02*
X89425000Y-112450000D01*
X84650000Y-107425000D02*
X84150000Y-107425000D01*
X84150000Y-106475000D02*
X84650000Y-106475000D01*
X87675000Y-108450000D02*
X87675000Y-107950000D01*
X88625000Y-107950000D02*
X88625000Y-108450000D01*
X88400000Y-107425000D02*
X87900000Y-107425000D01*
X87900000Y-106475000D02*
X88400000Y-106475000D01*
X90375000Y-110950000D02*
X90375000Y-111450000D01*
X89425000Y-111450000D02*
X89425000Y-110950000D01*
X85250000Y-105925000D02*
X84750000Y-105925000D01*
X84750000Y-104975000D02*
X85250000Y-104975000D01*
X85150000Y-108275000D02*
X85150000Y-108975000D01*
X86350000Y-108975000D02*
X86350000Y-108275000D01*
X92050000Y-112275000D02*
X91550000Y-112275000D01*
X91550000Y-111325000D02*
X92050000Y-111325000D01*
X87875000Y-103200000D02*
X87875000Y-103700000D01*
X86925000Y-103700000D02*
X86925000Y-103200000D01*
X89375000Y-103200000D02*
X89375000Y-103700000D01*
X88425000Y-103700000D02*
X88425000Y-103200000D01*
X86400000Y-104100000D02*
X86400000Y-103400000D01*
X85200000Y-103400000D02*
X85200000Y-104100000D01*
X84650000Y-109175000D02*
X84150000Y-109175000D01*
X84150000Y-108225000D02*
X84650000Y-108225000D01*
X65150000Y-98975000D02*
X65650000Y-98975000D01*
X65650000Y-99925000D02*
X65150000Y-99925000D01*
X65650000Y-101175000D02*
X65150000Y-101175000D01*
X65150000Y-100225000D02*
X65650000Y-100225000D01*
X82175000Y-109450000D02*
X82175000Y-108950000D01*
X83125000Y-108950000D02*
X83125000Y-109450000D01*
X84150000Y-104525000D02*
X83650000Y-104525000D01*
X83650000Y-103575000D02*
X84150000Y-103575000D01*
X83150000Y-107425000D02*
X82650000Y-107425000D01*
X82650000Y-106475000D02*
X83150000Y-106475000D01*
X83800000Y-105925000D02*
X83300000Y-105925000D01*
X83300000Y-104975000D02*
X83800000Y-104975000D01*
X71250000Y-102775000D02*
X71250000Y-102075000D01*
X70050000Y-102075000D02*
X70050000Y-102775000D01*
X65650000Y-108725000D02*
X66150000Y-108725000D01*
X66150000Y-109675000D02*
X65650000Y-109675000D01*
X76525000Y-107300000D02*
X76525000Y-107800000D01*
X75575000Y-107800000D02*
X75575000Y-107300000D01*
X72875000Y-105700000D02*
X72875000Y-106200000D01*
X71925000Y-106200000D02*
X71925000Y-105700000D01*
X67925000Y-101950000D02*
X67925000Y-101450000D01*
X68875000Y-101450000D02*
X68875000Y-101950000D01*
X76450000Y-101125000D02*
X75950000Y-101125000D01*
X75950000Y-100175000D02*
X76450000Y-100175000D01*
X74325000Y-110600000D02*
X74325000Y-110100000D01*
X75275000Y-110100000D02*
X75275000Y-110600000D01*
X74650000Y-111475000D02*
X75150000Y-111475000D01*
X75150000Y-112425000D02*
X74650000Y-112425000D01*
X70912652Y-107359099D02*
X70559099Y-107712652D01*
X69887348Y-107040901D02*
X70240901Y-106687348D01*
X69875000Y-111450000D02*
X69875000Y-111950000D01*
X68925000Y-111950000D02*
X68925000Y-111450000D01*
X65650000Y-109975000D02*
X66150000Y-109975000D01*
X66150000Y-110925000D02*
X65650000Y-110925000D01*
X65650000Y-107475000D02*
X66150000Y-107475000D01*
X66150000Y-108425000D02*
X65650000Y-108425000D01*
X65650000Y-105975000D02*
X66150000Y-105975000D01*
X66150000Y-106925000D02*
X65650000Y-106925000D01*
X65650000Y-101725000D02*
X66150000Y-101725000D01*
X66150000Y-102675000D02*
X65650000Y-102675000D01*
X82150000Y-103475000D02*
X82650000Y-103475000D01*
X82650000Y-104425000D02*
X82150000Y-104425000D01*
X88150000Y-102425000D02*
X87650000Y-102425000D01*
X87650000Y-101475000D02*
X88150000Y-101475000D01*
X55325000Y-94325000D02*
X55325000Y-95025000D01*
X56525000Y-95025000D02*
X56525000Y-94325000D01*
X55325000Y-95025000D02*
X55325000Y-94325000D01*
X54125000Y-94325000D02*
X54125000Y-95025000D01*
X79275000Y-110100000D02*
X79275000Y-109600000D01*
X80225000Y-109600000D02*
X80225000Y-110100000D01*
X71125000Y-104822599D02*
X71125000Y-105322599D01*
X70175000Y-105322599D02*
X70175000Y-104822599D01*
X66150000Y-104925000D02*
X65650000Y-104925000D01*
X65650000Y-103975000D02*
X66150000Y-103975000D01*
X65650000Y-102725000D02*
X66150000Y-102725000D01*
X66150000Y-103675000D02*
X65650000Y-103675000D01*
X84675000Y-102550000D02*
X84675000Y-103050000D01*
X83725000Y-103050000D02*
X83725000Y-102550000D01*
X59275000Y-102050000D02*
X58575000Y-102050000D01*
X58575000Y-103250000D02*
X59275000Y-103250000D01*
X89475000Y-107925000D02*
X89475000Y-108425000D01*
X88525000Y-108425000D02*
X88525000Y-107925000D01*
X92525000Y-110150000D02*
X91825000Y-110150000D01*
X91825000Y-111350000D02*
X92525000Y-111350000D01*
X91675000Y-113750000D02*
X92375000Y-113750000D01*
X92375000Y-112550000D02*
X91675000Y-112550000D01*
X59150000Y-109375000D02*
X58650000Y-109375000D01*
X58650000Y-108425000D02*
X59150000Y-108425000D01*
X54575000Y-99100000D02*
X55275000Y-99100000D01*
X55275000Y-97900000D02*
X54575000Y-97900000D01*
X82300000Y-117475000D02*
X82800000Y-117475000D01*
X82800000Y-118425000D02*
X82300000Y-118425000D01*
D13*
X67200000Y-118810000D02*
X64750000Y-118810000D01*
X65400000Y-115590000D02*
X67200000Y-115590000D01*
D12*
X69650000Y-117525000D02*
X69650000Y-116825000D01*
X68450000Y-116825000D02*
X68450000Y-117525000D01*
X55275000Y-96650000D02*
X54575000Y-96650000D01*
X54575000Y-97850000D02*
X55275000Y-97850000D01*
X58650000Y-107425000D02*
X59150000Y-107425000D01*
X59150000Y-108375000D02*
X58650000Y-108375000D01*
X58650000Y-106425000D02*
X59150000Y-106425000D01*
X59150000Y-107375000D02*
X58650000Y-107375000D01*
X82175000Y-99250000D02*
X82175000Y-99750000D01*
X81225000Y-99750000D02*
X81225000Y-99250000D01*
X85150000Y-97125000D02*
X84650000Y-97125000D01*
X84650000Y-96175000D02*
X85150000Y-96175000D01*
X84025000Y-98200000D02*
X84025000Y-97700000D01*
X84975000Y-97700000D02*
X84975000Y-98200000D01*
X94725000Y-109125000D02*
X95225000Y-109125000D01*
X95225000Y-110075000D02*
X94725000Y-110075000D01*
D14*
X87028249Y-122633883D02*
X86816117Y-122421751D01*
X87452513Y-121007538D02*
X86957538Y-121502513D01*
X88442462Y-121997487D02*
X87947487Y-122492462D01*
D12*
X103675000Y-106750000D02*
X103675000Y-107250000D01*
X102725000Y-107250000D02*
X102725000Y-106750000D01*
X105200000Y-104725000D02*
X104700000Y-104725000D01*
X104700000Y-103775000D02*
X105200000Y-103775000D01*
X101725000Y-107250000D02*
X101725000Y-106750000D01*
X102675000Y-106750000D02*
X102675000Y-107250000D01*
X103925000Y-100000000D02*
X103925000Y-100500000D01*
X102975000Y-100500000D02*
X102975000Y-100000000D01*
D14*
X47290000Y-128900000D02*
X47290000Y-127600000D01*
X49110000Y-128900000D02*
X49110000Y-127600000D01*
X66452513Y-123257538D02*
X65957538Y-123752513D01*
X67442462Y-124247487D02*
X66947487Y-124742462D01*
X66028249Y-124883883D02*
X65816117Y-124671751D01*
D12*
X85402082Y-125848528D02*
X85048528Y-126202082D01*
X85048528Y-126202082D02*
X82997918Y-124151472D01*
X82997918Y-124151472D02*
X83351472Y-123797918D01*
X83351472Y-123797918D02*
X85402082Y-125848528D01*
X85219238Y-126484924D02*
G75*
G03*
X85219238Y-126484924I-99999J0D01*
G01*
X59700000Y-127950000D02*
X59700000Y-125050000D01*
X60200000Y-127950000D02*
X59700000Y-127950000D01*
X59700000Y-125050000D02*
X60200000Y-125050000D01*
X60200000Y-125050000D02*
X60200000Y-127950000D01*
X60450000Y-124800000D02*
G75*
G03*
X60450000Y-124800000I-100000J0D01*
G01*
X106500000Y-126500000D02*
X109400000Y-126500000D01*
X106500000Y-127000000D02*
X106500000Y-126500000D01*
X109400000Y-127000000D02*
X106500000Y-127000000D01*
X109400000Y-126500000D02*
X109400000Y-127000000D01*
X109750000Y-127150000D02*
G75*
G03*
X109750000Y-127150000I-100000J0D01*
G01*
X51350000Y-104325000D02*
X51350000Y-105025000D01*
X52550000Y-105025000D02*
X52550000Y-104325000D01*
X99075000Y-112400000D02*
X98375000Y-112400000D01*
X98375000Y-113600000D02*
X99075000Y-113600000D01*
X51350000Y-97525000D02*
X51350000Y-98225000D01*
X52550000Y-98225000D02*
X52550000Y-97525000D01*
X90375000Y-124850000D02*
X91075000Y-124850000D01*
X91075000Y-123650000D02*
X90375000Y-123650000D01*
X91075000Y-122150000D02*
X90375000Y-122150000D01*
X90375000Y-123350000D02*
X91075000Y-123350000D01*
X51275000Y-100800000D02*
X50575000Y-100800000D01*
X50575000Y-102000000D02*
X51275000Y-102000000D01*
X57075000Y-112900000D02*
X56375000Y-112900000D01*
X56375000Y-114100000D02*
X57075000Y-114100000D01*
X108025000Y-111900000D02*
X107325000Y-111900000D01*
X107325000Y-113100000D02*
X108025000Y-113100000D01*
X72700000Y-134475000D02*
X72200000Y-134475000D01*
X72200000Y-133525000D02*
X72700000Y-133525000D01*
X69850000Y-132675000D02*
X69850000Y-133375000D01*
X71050000Y-133375000D02*
X71050000Y-132675000D01*
X75050000Y-133375000D02*
X75050000Y-132675000D01*
X73850000Y-132675000D02*
X73850000Y-133375000D01*
X105575000Y-112650000D02*
X104875000Y-112650000D01*
X104875000Y-113850000D02*
X105575000Y-113850000D01*
X100825000Y-113100000D02*
X101525000Y-113100000D01*
X101525000Y-111900000D02*
X100825000Y-111900000D01*
X88025000Y-111900000D02*
X87325000Y-111900000D01*
X87325000Y-113100000D02*
X88025000Y-113100000D01*
X110075000Y-123400000D02*
X109375000Y-123400000D01*
X109375000Y-124600000D02*
X110075000Y-124600000D01*
X105825000Y-124600000D02*
X106525000Y-124600000D01*
X106525000Y-123400000D02*
X105825000Y-123400000D01*
X57325000Y-122650000D02*
X56625000Y-122650000D01*
X56625000Y-123850000D02*
X57325000Y-123850000D01*
D14*
X54040000Y-102150000D02*
X54040000Y-100850000D01*
X55860000Y-102150000D02*
X55860000Y-100850000D01*
X55860000Y-110900000D02*
X55860000Y-109600000D01*
X54040000Y-110900000D02*
X54040000Y-109600000D01*
D13*
X77460000Y-132220000D02*
X77460000Y-131780000D01*
X76440000Y-132220000D02*
X76440000Y-131780000D01*
X109460000Y-121280000D02*
X109460000Y-121720000D01*
X108440000Y-121280000D02*
X108440000Y-121720000D01*
X107460000Y-121280000D02*
X107460000Y-121720000D01*
X106440000Y-121280000D02*
X106440000Y-121720000D01*
D12*
X104950000Y-114025000D02*
X105450000Y-114025000D01*
X105450000Y-114975000D02*
X104950000Y-114975000D01*
X106700000Y-114025000D02*
X107200000Y-114025000D01*
X107200000Y-114975000D02*
X106700000Y-114975000D01*
X98700000Y-113775000D02*
X99200000Y-113775000D01*
X99200000Y-114725000D02*
X98700000Y-114725000D01*
X100450000Y-113775000D02*
X100950000Y-113775000D01*
X100950000Y-114725000D02*
X100450000Y-114725000D01*
X116450000Y-96175000D02*
X117450000Y-96175000D01*
X117450000Y-94825000D02*
X116450000Y-94825000D01*
X115275000Y-89900000D02*
X115275000Y-90900000D01*
X116625000Y-90900000D02*
X116625000Y-89900000D01*
X52025000Y-132000000D02*
X52025000Y-133000000D01*
X53375000Y-133000000D02*
X53375000Y-132000000D01*
X56875000Y-133000000D02*
X56875000Y-132000000D01*
X55525000Y-132000000D02*
X55525000Y-133000000D01*
D14*
X69850000Y-128300000D02*
X69850000Y-126700000D01*
X69850000Y-128300000D02*
X70030000Y-128300000D01*
X72550000Y-128290000D02*
X72550000Y-126710000D01*
X72370000Y-128290000D02*
X72550000Y-128290000D01*
X72380000Y-126710000D02*
X72550000Y-126710000D01*
D12*
X59150000Y-97875000D02*
X58650000Y-97875000D01*
X58650000Y-96925000D02*
X59150000Y-96925000D01*
X59150000Y-99875000D02*
X58650000Y-99875000D01*
X58650000Y-98925000D02*
X59150000Y-98925000D01*
X58650000Y-97925000D02*
X59150000Y-97925000D01*
X59150000Y-98875000D02*
X58650000Y-98875000D01*
X107675000Y-104000000D02*
X107675000Y-104500000D01*
X106725000Y-104500000D02*
X106725000Y-104000000D01*
X90175000Y-105250000D02*
X90175000Y-105750000D01*
X89225000Y-105750000D02*
X89225000Y-105250000D01*
X87450000Y-110775000D02*
X87950000Y-110775000D01*
X87950000Y-111725000D02*
X87450000Y-111725000D01*
X88650000Y-115225000D02*
X88150000Y-115225000D01*
X88150000Y-114275000D02*
X88650000Y-114275000D01*
X88200000Y-113275000D02*
X88700000Y-113275000D01*
X88700000Y-114225000D02*
X88200000Y-114225000D01*
X104575000Y-108400000D02*
X103875000Y-108400000D01*
X103875000Y-109600000D02*
X104575000Y-109600000D01*
X104600000Y-105675000D02*
X104600000Y-106375000D01*
X105800000Y-106375000D02*
X105800000Y-105675000D01*
X101075000Y-109600000D02*
X101775000Y-109600000D01*
X101775000Y-108400000D02*
X101075000Y-108400000D01*
X104100000Y-99875000D02*
X104100000Y-100575000D01*
X105300000Y-100575000D02*
X105300000Y-99875000D01*
X100700000Y-101225000D02*
X100200000Y-101225000D01*
X100200000Y-100275000D02*
X100700000Y-100275000D01*
X99325000Y-102600000D02*
X100025000Y-102600000D01*
X100025000Y-101400000D02*
X99325000Y-101400000D01*
X115950000Y-113775000D02*
X116450000Y-113775000D01*
X116450000Y-114725000D02*
X115950000Y-114725000D01*
X119450000Y-110225000D02*
X118950000Y-110225000D01*
X118950000Y-109275000D02*
X119450000Y-109275000D01*
M02*
