M48
; DRILL file {KiCad (6.0.1-0)} date Tuesday, December 27, 2022 at 01:34:04 PM
; FORMAT={-:-/ absolute / inch / decimal}
; #@! TF.CreationDate,2022-12-27T13:34:04-05:00
; #@! TF.GenerationSoftware,Kicad,Pcbnew,(6.0.1-0)
; #@! TF.FileFunction,Plated,1,4,PTH
FMAT,2
INCH
; #@! TA.AperFunction,Plated,PTH,ViaDrill
T1C0.0079
; #@! TA.AperFunction,Plated,PTH,ComponentDrill
T2C0.0079
; #@! TA.AperFunction,Plated,PTH,ComponentDrill
T3C0.0157
; #@! TA.AperFunction,Plated,PTH,ComponentDrill
T4C0.0236
; #@! TA.AperFunction,Plated,PTH,ComponentDrill
T5C0.0394
%
G90
G05
T1
X1.8681Y-4.8524
X1.8681Y-4.9409
X1.8799Y-4.6417
X1.8917Y-3.6811
X1.8917Y-3.7677
X1.8976Y-4.9409
X1.8976Y-5.1575
X1.8976Y-5.2559
X1.9075Y-3.4803
X1.9114Y-3.563
X1.9272Y-4.9409
X1.9626Y-4.3976
X1.9665Y-3.9528
X1.9665Y-4.0315
X1.9783Y-4.6299
X1.9862Y-3.4921
X1.9862Y-3.5827
X1.9862Y-5.0197
X2.0059Y-5.0394
X2.0335Y-4.4016
X2.0356Y-3.9215
X2.0356Y-4.0628
X2.065Y-3.9429
X2.065Y-4.0512
X2.0748Y-3.9724
X2.0748Y-4.0118
X2.0748Y-4.8819
X2.0748Y-5.1476
X2.0748Y-5.2756
X2.0807Y-4.6457
X2.0945Y-3.9528
X2.0945Y-3.9921
X2.0945Y-4.0315
X2.0945Y-4.8228
X2.0945Y-5.3445
X2.1142Y-3.2382
X2.1142Y-5.128
X2.1201Y-4.185
X2.124Y-3.7874
X2.1289Y-5.1673
X2.1535Y-4.1437
X2.1539Y-4.0988
X2.1585Y-5.1673
X2.1762Y-4.1211
X2.1772Y-4.179
X2.1772Y-4.2087
X2.1772Y-4.2397
X2.1831Y-5.128
X2.2028Y-3.5827
X2.2028Y-3.6614
X2.2126Y-5.1476
X2.2126Y-5.2756
X2.2136Y-3.9941
X2.2224Y-3.9331
X2.2224Y-4.3406
X2.2323Y-4.3701
X2.2352Y-3.812
X2.2361Y-3.8378
X2.2362Y-3.8642
X2.2402Y-4.0807
X2.2402Y-4.1102
X2.2461Y-3.7116
X2.2461Y-3.7421
X2.2461Y-3.7717
X2.2496Y-4.2563
X2.252Y-4.3406
X2.2598Y-4.002
X2.2638Y-4.1732
X2.2697Y-3.9528
X2.2697Y-4.0709
X2.2717Y-3.686
X2.2717Y-4.9803
X2.2717Y-5.0492
X2.2785Y-3.4616
X2.2992Y-4.3268
X2.3012Y-4.3701
X2.3012Y-5.0492
X2.3386Y-4.3366
X2.35Y-4.5484
X2.3504Y-4.3898
X2.3504Y-4.4291
X2.3504Y-4.4685
X2.3504Y-4.5079
X2.3602Y-4.9803
X2.3642Y-3.6575
X2.3701Y-5.3445
X2.376Y-4.7205
X2.378Y-3.9724
X2.378Y-4.0413
X2.378Y-4.3228
X2.3799Y-4.8228
X2.3976Y-4.2291
X2.3976Y-4.2665
X2.398Y-3.8933
X2.3988Y-3.8559
X2.4094Y-4.7933
X2.4094Y-4.8228
X2.4094Y-4.8524
X2.439Y-4.8228
X2.439Y-4.9803
X2.4419Y-3.622
X2.4577Y-3.4636
X2.4818Y-4.813
X2.4988Y-4.8305
X2.515Y-4.813
X2.5236Y-4.1437
X2.5237Y-4.3228
X2.5276Y-4.2909
X2.5276Y-5.0591
X2.5313Y-4.8399
X2.538Y-4.7262
X2.5385Y-3.9026
X2.5394Y-4.0748
X2.5453Y-4.0138
X2.5492Y-4.5433
X2.5535Y-4.2209
X2.5537Y-4.8326
X2.562Y-4.3681
X2.5659Y-4.44
X2.5669Y-4.0896
X2.5765Y-4.3241
X2.5807Y-4.8091
X2.5837Y-3.6949
X2.5866Y-4.685
X2.625Y-3.9508
X2.6286Y-4.1344
X2.6398Y-4.3209
X2.6427Y-4.0167
X2.6467Y-4.0699
X2.6496Y-4.6732
X2.6506Y-3.9291
X2.6506Y-3.9931
X2.6508Y-4.1037
X2.6516Y-3.9616
X2.6516Y-4.1824
X2.6516Y-4.2142
X2.6516Y-4.2463
X2.6565Y-4.0453
X2.6601Y-4.2923
X2.6604Y-4.3553
X2.6604Y-4.3868
X2.6752Y-5.3445
X2.6799Y-5.0098
X2.6893Y-3.4693
X2.6909Y-4.1663
X2.6919Y-4.1348
X2.6926Y-4.1026
X2.6929Y-4.0404
X2.6929Y-4.1969
X2.6932Y-4.2942
X2.6939Y-3.9114
X2.7064Y-4.4311
X2.7083Y-5.0831
X2.7146Y-3.5138
X2.7234Y-4.1978
X2.7234Y-4.2608
X2.7234Y-4.3563
X2.7234Y-4.1019
X2.7241Y-3.9766
X2.7244Y-4.2293
X2.7244Y-5.0492
X2.7244Y-4.0404
X2.7343Y-5.2165
X2.7343Y-5.2657
X2.7477Y-5.0764
X2.752Y-3.9055
X2.7539Y-4.1988
X2.7589Y-4.1506
X2.7598Y-4.1211
X2.7618Y-3.5551
X2.7638Y-4.9213
X2.7638Y-5.1181
X2.7749Y-4.9462
X2.7882Y-5.0838
X2.7933Y-4.9213
X2.7953Y-4.0906
X2.8047Y-5.1165
X2.8055Y-3.5045
X2.8057Y-3.9551
X2.8122Y-3.8521
X2.813Y-4.1361
X2.8159Y-4.0089
X2.8194Y-4.9502
X2.8205Y-3.9844
X2.8248Y-4.2146
X2.8268Y-4.2421
X2.8268Y-4.2697
X2.8327Y-4.9213
X2.8327Y-5.2362
X2.8327Y-5.3051
X2.8329Y-3.9551
X2.8349Y-4.3819
X2.8366Y-4.0423
X2.8367Y-4.1083
X2.8374Y-4.1337
X2.8429Y-3.8504
X2.8466Y-4.0699
X2.8519Y-4.9497
X2.8521Y-5.0676
X2.8587Y-4.4238
X2.8645Y-4.4689
X2.8661Y-4.6398
X2.8671Y-3.5256
X2.872Y-5.2362
X2.8797Y-4.1657
X2.8797Y-4.2613
X2.8798Y-4.1971
X2.8799Y-3.8484
X2.8799Y-4.3228
X2.8802Y-4.2292
X2.8803Y-4.293
X2.8804Y-3.9778
X2.8806Y-4.3559
X2.8809Y-4.0728
X2.8814Y-4.0076
X2.8839Y-4.9843
X2.8996Y-5.0138
X2.9055Y-4.4232
X2.9114Y-4.8524
X2.9119Y-4.2923
X2.9124Y-4.1048
X2.9124Y-3.9783
X2.9124Y-4.0719
X2.9124Y-4.3238
X2.9124Y-4.3868
X2.9127Y-4.2304
X2.9132Y-4.356
X2.9134Y-4.1975
X2.9193Y-3.8484
X2.9311Y-5.2953
X2.9432Y-4.1042
X2.9488Y-4.1358
X2.9489Y-4.0279
X2.9508Y-3.984
X2.9591Y-3.9619
X2.9646Y-4.2146
X2.9646Y-4.25
X2.968Y-4.0635
X2.9705Y-3.5
X2.9705Y-3.563
X2.9764Y-4.0279
X2.9879Y-4.3536
X2.9885Y-4.1669
X2.9903Y-4.0521
X2.9961Y-4.2756
X3.0Y-5.3445
X3.0049Y-3.5089
X3.0101Y-4.1358
X3.0295Y-5.1083
X3.0394Y-4.2441
X3.0394Y-3.8307
X3.0395Y-4.2762
X3.0551Y-3.9833
X3.0551Y-4.1476
X3.0689Y-5.0689
X3.0689Y-4.2756
X3.0807Y-4.2337
X3.0886Y-5.1575
X3.0925Y-4.4469
X3.1083Y-3.7131
X3.1083Y-4.2331
X3.1181Y-4.6308
X3.1217Y-4.4403
X3.1358Y-3.7126
X3.1378Y-4.8622
X3.1476Y-4.4823
X3.1772Y-4.8228
X3.1788Y-4.4656
X3.186Y-4.3711
X3.1867Y-4.12
X3.187Y-4.3391
X3.1876Y-4.1814
X3.1876Y-3.9601
X3.188Y-4.0581
X3.188Y-4.2747
X3.1884Y-4.3068
X3.189Y-4.2426
X3.1896Y-4.4918
X3.19Y-3.9931
X3.19Y-4.0266
X3.1917Y-3.7243
X3.2109Y-4.4637
X3.2146Y-3.878
X3.2165Y-3.3366
X3.2185Y-4.1493
X3.2185Y-4.3711
X3.2195Y-4.184
X3.2195Y-4.2778
X3.2195Y-4.3396
X3.2197Y-4.3106
X3.2198Y-4.1172
X3.2205Y-4.2126
X3.2206Y-4.2457
X3.2208Y-4.0574
X3.2214Y-3.9612
X3.2223Y-3.7319
X3.2264Y-4.8622
X3.2264Y-5.3445
X3.2461Y-3.6417
X3.2496Y-4.1807
X3.25Y-3.4134
X3.25Y-4.3396
X3.2501Y-4.2453
X3.2505Y-4.0586
X3.2509Y-4.1193
X3.251Y-4.1506
X3.251Y-4.4026
X3.252Y-4.3701
X3.2559Y-4.9803
X3.2591Y-4.4835
X3.2697Y-3.8071
X3.2697Y-3.8386
X3.2736Y-4.7047
X3.2756Y-3.4744
X3.2815Y-4.3081
X3.2825Y-4.1191
X3.2825Y-4.1821
X3.2825Y-4.2451
X3.2825Y-4.2766
X3.2825Y-4.3396
X3.283Y-3.9913
X3.3051Y-3.6516
X3.3097Y-3.7065
X3.3118Y-3.9933
X3.3128Y-3.9609
X3.313Y-4.1201
X3.314Y-4.1821
X3.314Y-4.2451
X3.314Y-4.3396
X3.315Y-4.9213
X3.3157Y-4.3086
X3.3248Y-4.5945
X3.3287Y-4.5295
X3.3346Y-3.4154
X3.34Y-4.3684
X3.3445Y-3.7106
X3.3445Y-4.3091
X3.3445Y-4.0866
X3.3445Y-4.0552
X3.3455Y-4.1191
X3.3455Y-4.2451
X3.3459Y-3.9913
X3.3461Y-3.961
X3.3461Y-4.0263
X3.3465Y-4.1821
X3.3465Y-4.7008
X3.3465Y-4.4961
X3.3468Y-4.3409
X3.3475Y-4.4664
X3.3602Y-3.7638
X3.376Y-4.372
X3.377Y-4.1821
X3.3789Y-3.9321
X3.3829Y-4.8612
X3.3846Y-4.152
X3.3878Y-4.622
X3.3937Y-3.3366
X3.4035Y-3.6713
X3.4063Y-3.9933
X3.4069Y-4.0576
X3.4075Y-4.3091
X3.4085Y-4.2451
X3.4094Y-4.1181
X3.4114Y-4.2776
X3.4331Y-3.7205
X3.439Y-4.2776
X3.44Y-4.1506
X3.44Y-4.2451
X3.4407Y-4.1828
X3.4409Y-4.1201
X3.4429Y-4.5866
X3.4547Y-3.8898
X3.4665Y-4.1835
X3.4705Y-4.3091
X3.4723Y-4.0576
X3.4921Y-3.7205
X3.4961Y-4.5945
X3.501Y-4.3396
X3.5018Y-4.3711
X3.5018Y-4.4031
X3.502Y-4.8425
X3.5025Y-4.0246
X3.503Y-4.306
X3.5051Y-4.182
X3.5055Y-4.2138
X3.5061Y-4.1201
X3.5118Y-4.9114
X3.5217Y-3.622
X3.5335Y-4.6772
X3.5344Y-4.3091
X3.5346Y-3.9303
X3.5354Y-4.2136
X3.537Y-4.3398
X3.5512Y-3.2382
X3.5575Y-4.4785
X3.56Y-4.565
X3.565Y-4.1506
X3.565Y-4.2136
X3.5659Y-3.9931
X3.5659Y-4.1821
X3.5659Y-4.3071
X3.5659Y-4.373
X3.5659Y-4.4035
X3.5663Y-4.2746
X3.5797Y-4.6988
X3.5807Y-3.7598
X3.5807Y-3.8504
X3.5896Y-4.565
X3.595Y-4.5177
X3.5965Y-4.2146
X3.5974Y-4.2746
X3.5984Y-3.9626
X3.5985Y-4.0866
X3.5994Y-4.1191
X3.6093Y-4.6988
X3.6152Y-5.0591
X3.6268Y-4.0248
X3.628Y-3.9922
X3.6292Y-3.9286
X3.6299Y-3.9626
X3.6398Y-4.8917
X3.6447Y-5.0591
X3.6476Y-3.5984
X3.6496Y-4.7047
X3.659Y-4.429
X3.6747Y-3.5906
X3.6791Y-4.252
X3.6803Y-4.375
X3.6824Y-4.616
X3.687Y-4.1732
X3.687Y-4.2008
X3.688Y-3.5679
X3.6969Y-4.315
X3.6988Y-4.7047
X3.7106Y-4.2598
X3.7175Y-3.5699
X3.7343Y-3.4921
X3.7382Y-4.2717
X3.7382Y-4.7441
X3.7433Y-4.5031
X3.748Y-5.187
X3.7579Y-4.6654
X3.7579Y-4.6949
X3.7579Y-4.7244
X3.7579Y-4.7638
X3.7618Y-4.3898
X3.762Y-4.5743
X3.7654Y-4.2136
X3.7677Y-4.8228
X3.7677Y-5.0394
X3.7776Y-4.7441
X3.7776Y-5.0689
X3.7874Y-4.124
X3.7874Y-4.1535
X3.7874Y-4.3209
X3.7933Y-4.1811
X3.813Y-4.3219
X3.8169Y-4.9409
X3.8169Y-4.9803
X3.8169Y-5.0098
X3.8366Y-3.5512
X3.8366Y-3.7205
X3.8366Y-4.498
X3.8448Y-4.2241
X3.8455Y-4.3243
X3.8465Y-3.2382
X3.8465Y-3.7894
X3.8858Y-4.3996
X3.9035Y-4.0512
X3.9055Y-4.7638
X3.9154Y-4.2717
X3.9154Y-4.3071
X3.9252Y-4.3996
X3.9252Y-4.5472
X3.9252Y-4.6161
X3.935Y-4.9606
X3.9449Y-4.4685
X3.9646Y-4.9606
X3.9646Y-4.9902
X3.9744Y-3.9075
X3.9744Y-4.3937
X3.9843Y-3.7402
X3.9843Y-4.5374
X3.9941Y-4.9606
X4.0039Y-3.9961
X4.0236Y-3.7402
X4.0236Y-3.9665
X4.0236Y-4.6358
X4.0236Y-4.7638
X4.0335Y-4.252
X4.0433Y-3.9961
X4.0531Y-4.4587
X4.0531Y-4.3996
X4.0531Y-4.4291
X4.0531Y-4.6358
X4.063Y-4.252
X4.063Y-4.8327
X4.0827Y-4.6358
X4.0827Y-4.4882
X4.1122Y-4.3996
X4.1122Y-5.0
X4.122Y-3.7008
X4.122Y-4.5472
X4.1319Y-3.2382
X4.1319Y-3.7402
X4.1398Y-4.0236
X4.1614Y-4.3996
X4.1614Y-4.7835
X4.1713Y-3.9173
X4.1713Y-4.2717
X4.1762Y-4.1002
X4.1811Y-4.1634
X4.1811Y-4.5472
X4.1811Y-4.6161
X4.2106Y-4.4685
X4.2106Y-4.6949
X4.2303Y-4.1634
X4.2343Y-4.2953
X4.2402Y-4.5472
X4.25Y-4.9016
X4.25Y-5.0787
X4.2598Y-5.3445
X4.2697Y-4.1142
X4.2697Y-4.6457
X4.2894Y-4.0453
X4.2894Y-4.0748
X4.2894Y-4.1535
X4.2894Y-4.2028
X4.2894Y-4.6949
X4.2992Y-4.3996
X4.2992Y-4.4291
X4.2992Y-4.4587
X4.2992Y-4.6457
X4.3189Y-4.2618
X4.3287Y-4.6457
X4.3287Y-4.3504
X4.3386Y-4.0453
X4.3386Y-4.1634
X4.3455Y-4.8258
X4.3484Y-5.1181
X4.3583Y-3.7008
X4.3681Y-4.6949
X4.3681Y-5.0197
X4.378Y-4.1535
X4.3878Y-3.7697
X4.3878Y-4.0453
X4.3878Y-4.0748
X4.3976Y-4.1142
X4.4173Y-4.311
X4.437Y-4.439
X4.437Y-5.0787
X4.4665Y-3.2382
X4.4665Y-4.7539
X4.4764Y-4.8622
X4.4862Y-4.1732
X4.4862Y-4.3012
X4.4961Y-3.4843
X4.522Y-5.339
X4.5256Y-3.5709
X4.5256Y-3.7598
X4.5256Y-4.7539
X4.5453Y-4.124
X4.5551Y-4.5374
X4.6142Y-4.9902
X4.624Y-4.0354
X4.624Y-4.498
X4.6339Y-3.5531
X4.6437Y-4.3209
X4.6752Y-3.7598
X4.6929Y-4.5965
X4.7421Y-4.3209
X4.7472Y-5.1827
X4.752Y-3.4547
X4.752Y-3.6319
X4.752Y-3.8287
X4.752Y-4.0157
X4.752Y-4.1831
X4.752Y-4.4685
X4.752Y-4.7146
X4.752Y-4.9409
T2
X4.0039Y-4.0846
X4.0039Y-4.124
X4.0039Y-4.1634
X4.0433Y-4.0846
X4.0433Y-4.124
X4.0433Y-4.1634
X4.0827Y-4.0846
X4.0827Y-4.124
X4.0827Y-4.1634
T3
X3.3228Y-5.065
X3.3228Y-5.3051
X3.3701Y-5.065
X3.3701Y-5.3051
X3.8898Y-5.065
X3.8898Y-5.3051
X3.937Y-5.065
X3.937Y-5.3051
T5
X1.9281Y-4.4724
X1.9281Y-4.5724
X2.0281Y-4.4724
X2.0281Y-4.5724
X2.2055Y-3.3063
X2.2055Y-3.4063
X2.3055Y-3.3063
X2.3055Y-3.4063
X2.4055Y-3.3063
X2.4055Y-3.4063
X2.5055Y-3.3063
X2.5055Y-3.4063
X2.6055Y-3.3063
X2.6055Y-3.4063
X2.7055Y-3.3063
X2.7055Y-3.4063
X2.8055Y-3.3063
X2.8055Y-3.4063
X2.9055Y-3.3063
X2.9055Y-3.4063
X3.0055Y-3.3063
X3.0055Y-3.4063
X3.1055Y-3.3063
X3.1055Y-3.4063
X3.5047Y-3.3063
X3.5047Y-3.4063
X3.6047Y-3.3063
X3.6047Y-3.4063
X3.7047Y-3.3063
X3.7047Y-3.4063
X3.8047Y-3.3063
X3.8047Y-3.4063
X3.9047Y-3.3063
X3.9047Y-3.4063
X4.0047Y-3.3063
X4.0047Y-3.4063
X4.1047Y-3.3063
X4.1047Y-3.4063
X4.2047Y-3.3063
X4.2047Y-3.4063
X4.3047Y-3.3063
X4.3047Y-3.4063
X4.4047Y-3.3063
X4.4047Y-3.4063
T4
G00X1.9736Y-5.0894
M15
G01X1.9736Y-5.1327
M16
G05
G00X1.9736Y-5.2598
M15
G01X1.9736Y-5.2913
M16
G05
G00X2.3138Y-5.0894
M15
G01X2.3138Y-5.1327
M16
G05
G00X2.3138Y-5.2598
M15
G01X2.3138Y-5.2913
M16
G05
T0
M30
