%TF.GenerationSoftware,KiCad,Pcbnew,(6.0.1-0)*%
%TF.CreationDate,2022-12-27T13:33:37-05:00*%
%TF.ProjectId,EX-PCB-10108-001,45582d50-4342-42d3-9130-3130382d3030,A*%
%TF.SameCoordinates,Original*%
%TF.FileFunction,Soldermask,Bot*%
%TF.FilePolarity,Negative*%
%FSLAX46Y46*%
G04 Gerber Fmt 4.6, Leading zero omitted, Abs format (unit mm)*
G04 Created by KiCad (PCBNEW (6.0.1-0)) date 2022-12-27 13:33:37*
%MOMM*%
%LPD*%
G01*
G04 APERTURE LIST*
G04 Aperture macros list*
%AMRotRect*
0 Rectangle, with rotation*
0 The origin of the aperture is its center*
0 $1 length*
0 $2 width*
0 $3 Rotation angle, in degrees counterclockwise*
0 Add horizontal line*
21,1,$1,$2,0,0,$3*%
G04 Aperture macros list end*
%TA.AperFunction,Profile*%
%ADD10C,0.500000*%
%TD*%
%ADD11R,1.700000X1.700000*%
%ADD12O,1.700000X1.700000*%
%ADD13C,3.200000*%
%ADD14C,1.500000*%
%ADD15C,1.600000*%
%ADD16C,0.650000*%
%ADD17O,1.050000X2.100000*%
%ADD18O,1.000000X2.000000*%
%ADD19R,0.710000X0.810000*%
%ADD20R,0.450000X0.510000*%
%ADD21R,0.510000X0.450000*%
%ADD22R,0.810000X0.710000*%
%ADD23RotRect,0.450000X0.510000X225.000000*%
%ADD24C,1.000000*%
%ADD25R,1.060000X0.500000*%
%ADD26C,2.540000*%
%ADD27RotRect,0.800000X0.500000X225.000000*%
%ADD28R,1.800000X1.070000*%
%ADD29RotRect,1.060000X0.550000X45.000000*%
%ADD30R,1.060000X0.550000*%
%ADD31R,0.550000X1.060000*%
%ADD32R,1.250000X1.150000*%
%ADD33R,0.200000X0.450000*%
%ADD34R,1.800000X0.400000*%
%ADD35C,2.000000*%
G04 APERTURE END LIST*
D10*
X46450000Y-85300000D02*
X46450000Y-132800000D01*
X46450000Y-132800000D02*
G75*
G03*
X50200000Y-136550000I3750001J1D01*
G01*
X126450000Y-85300000D02*
X126450000Y-132800000D01*
X121450000Y-85300000D02*
G75*
G03*
X117700000Y-81550000I-3750001J-1D01*
G01*
X121450000Y-85300000D02*
X121450000Y-132800000D01*
X121450000Y-132800000D02*
X126450000Y-132800000D01*
X117700000Y-136550000D02*
X50200000Y-136550000D01*
X41450000Y-132800000D02*
X46450000Y-132800000D01*
X117700000Y-136550000D02*
G75*
G03*
X121450000Y-132800000I-1J3750001D01*
G01*
X126450000Y-85300000D02*
X121450000Y-85300000D01*
X50200000Y-81550000D02*
G75*
G03*
X46450000Y-85300000I1J-3750001D01*
G01*
X41450000Y-85300000D02*
X46450000Y-85300000D01*
X41450000Y-85300000D02*
X41450000Y-132800000D01*
X117700000Y-81550000D02*
X50200000Y-81550000D01*
D11*
X111880000Y-83980000D03*
D12*
X111880000Y-86520000D03*
X109340000Y-83980000D03*
X109340000Y-86520000D03*
X106800000Y-83980000D03*
X106800000Y-86520000D03*
X104260000Y-83980000D03*
X104260000Y-86520000D03*
X101720000Y-83980000D03*
X101720000Y-86520000D03*
X99180000Y-83980000D03*
X99180000Y-86520000D03*
X96640000Y-83980000D03*
X96640000Y-86520000D03*
X94100000Y-83980000D03*
X94100000Y-86520000D03*
X91560000Y-83980000D03*
X91560000Y-86520000D03*
X89020000Y-83980000D03*
X89020000Y-86520000D03*
D11*
X78880000Y-83980000D03*
D12*
X78880000Y-86520000D03*
X76340000Y-83980000D03*
X76340000Y-86520000D03*
X73800000Y-83980000D03*
X73800000Y-86520000D03*
X71260000Y-83980000D03*
X71260000Y-86520000D03*
X68720000Y-83980000D03*
X68720000Y-86520000D03*
X66180000Y-83980000D03*
X66180000Y-86520000D03*
X63640000Y-83980000D03*
X63640000Y-86520000D03*
X61100000Y-83980000D03*
X61100000Y-86520000D03*
X58560000Y-83980000D03*
X58560000Y-86520000D03*
X56020000Y-83980000D03*
X56020000Y-86520000D03*
D13*
X50200000Y-85250000D03*
X117700000Y-85250000D03*
X62700000Y-132750000D03*
X105200000Y-132750000D03*
D14*
X89750000Y-129350000D03*
X94650000Y-129350000D03*
D15*
X114450000Y-126000000D03*
X114450000Y-133000000D03*
D16*
X57340000Y-130320000D03*
X51560000Y-130320000D03*
D17*
X58770000Y-129820000D03*
D18*
X50130000Y-134000000D03*
D17*
X50130000Y-129820000D03*
D18*
X58770000Y-134000000D03*
D11*
X48975000Y-113600000D03*
D12*
X51515000Y-113600000D03*
X48975000Y-116140000D03*
X51515000Y-116140000D03*
D19*
X66545000Y-111700000D03*
X65255000Y-111700000D03*
D20*
X88025000Y-110200000D03*
X87275000Y-110200000D03*
X88025000Y-105450000D03*
X88775000Y-105450000D03*
D21*
X89950000Y-108550000D03*
X89950000Y-107800000D03*
X86650000Y-105325000D03*
X86650000Y-106075000D03*
D20*
X87025000Y-106950000D03*
X86275000Y-106950000D03*
D21*
X89900000Y-112325000D03*
X89900000Y-113075000D03*
D20*
X84775000Y-106950000D03*
X84025000Y-106950000D03*
D21*
X88150000Y-108575000D03*
X88150000Y-107825000D03*
D20*
X87775000Y-106950000D03*
X88525000Y-106950000D03*
D21*
X89900000Y-110825000D03*
X89900000Y-111575000D03*
D20*
X84625000Y-105450000D03*
X85375000Y-105450000D03*
D22*
X85750000Y-107955000D03*
X85750000Y-109245000D03*
D20*
X91425000Y-111800000D03*
X92175000Y-111800000D03*
D21*
X87400000Y-103825000D03*
X87400000Y-103075000D03*
X88900000Y-103825000D03*
X88900000Y-103075000D03*
D22*
X85800000Y-104420000D03*
X85800000Y-103130000D03*
D20*
X84025000Y-108700000D03*
X84775000Y-108700000D03*
X65775000Y-99450000D03*
X65025000Y-99450000D03*
X65775000Y-100700000D03*
X65025000Y-100700000D03*
D21*
X82650000Y-109575000D03*
X82650000Y-108825000D03*
D20*
X83525000Y-104050000D03*
X84275000Y-104050000D03*
X82525000Y-106950000D03*
X83275000Y-106950000D03*
X83175000Y-105450000D03*
X83925000Y-105450000D03*
D22*
X70650000Y-103095000D03*
X70650000Y-101805000D03*
D20*
X66275000Y-109200000D03*
X65525000Y-109200000D03*
D21*
X76050000Y-107175000D03*
X76050000Y-107925000D03*
X72400000Y-106325000D03*
X72400000Y-105575000D03*
X68400000Y-102075000D03*
X68400000Y-101325000D03*
D20*
X75825000Y-100650000D03*
X76575000Y-100650000D03*
D21*
X74800000Y-110725000D03*
X74800000Y-109975000D03*
D20*
X74525000Y-111950000D03*
X75275000Y-111950000D03*
D23*
X70665165Y-106934835D03*
X70134835Y-107465165D03*
D21*
X69400000Y-112075000D03*
X69400000Y-111325000D03*
D20*
X66275000Y-110450000D03*
X65525000Y-110450000D03*
X66275000Y-107950000D03*
X65525000Y-107950000D03*
X66275000Y-106450000D03*
X65525000Y-106450000D03*
X66275000Y-102200000D03*
X65525000Y-102200000D03*
X82025000Y-103950000D03*
X82775000Y-103950000D03*
X88275000Y-101950000D03*
X87525000Y-101950000D03*
D22*
X55925000Y-95345000D03*
X55925000Y-94055000D03*
X54725000Y-95345000D03*
X54725000Y-94055000D03*
D21*
X79750000Y-109475000D03*
X79750000Y-110225000D03*
X70650000Y-105447599D03*
X70650000Y-104697599D03*
D20*
X65525000Y-104450000D03*
X66275000Y-104450000D03*
X65525000Y-103200000D03*
X66275000Y-103200000D03*
D21*
X84200000Y-102425000D03*
X84200000Y-103175000D03*
D19*
X58255000Y-102650000D03*
X59545000Y-102650000D03*
D21*
X89000000Y-108550000D03*
X89000000Y-107800000D03*
D19*
X91505000Y-110750000D03*
X92795000Y-110750000D03*
X91355000Y-113150000D03*
X92645000Y-113150000D03*
D20*
X58525000Y-108900000D03*
X59275000Y-108900000D03*
D19*
X55595000Y-98500000D03*
X54305000Y-98500000D03*
D20*
X82925000Y-117950000D03*
X82175000Y-117950000D03*
D24*
X84300000Y-117950000D03*
D25*
X65200000Y-118150000D03*
X65200000Y-117200000D03*
X65200000Y-116250000D03*
X67400000Y-116250000D03*
X67400000Y-118150000D03*
D22*
X69050000Y-117845000D03*
X69050000Y-116555000D03*
D19*
X55595000Y-97250000D03*
X54305000Y-97250000D03*
D20*
X59275000Y-107900000D03*
X58525000Y-107900000D03*
X59275000Y-106900000D03*
X58525000Y-106900000D03*
D26*
X52750000Y-89900000D03*
D21*
X81700000Y-99875000D03*
X81700000Y-99125000D03*
D20*
X85275000Y-96650000D03*
X84525000Y-96650000D03*
D21*
X84500000Y-98325000D03*
X84500000Y-97575000D03*
D20*
X95350000Y-109600000D03*
X94600000Y-109600000D03*
D26*
X76450000Y-126250000D03*
D27*
X87947487Y-120795406D03*
X86745406Y-121997487D03*
X87452513Y-122704594D03*
X88654594Y-121502513D03*
D21*
X103200000Y-107375000D03*
X103200000Y-106625000D03*
D20*
X105325000Y-104250000D03*
X104575000Y-104250000D03*
D21*
X102200000Y-107375000D03*
X102200000Y-106625000D03*
X103450000Y-100625000D03*
X103450000Y-99875000D03*
D28*
X48200000Y-129755000D03*
X48200000Y-126745000D03*
D27*
X66947487Y-123045406D03*
X65745406Y-124247487D03*
X66452513Y-124954594D03*
X67654594Y-123752513D03*
D29*
X84093934Y-126449569D03*
X83422183Y-125777817D03*
X82750431Y-125106066D03*
X84306066Y-123550431D03*
X84977817Y-124222183D03*
X85649569Y-124893934D03*
D30*
X61050000Y-125550000D03*
X61050000Y-126500000D03*
X61050000Y-127450000D03*
X58850000Y-127450000D03*
X58850000Y-126500000D03*
X58850000Y-125550000D03*
D31*
X108900000Y-127850000D03*
X107950000Y-127850000D03*
X107000000Y-127850000D03*
X107000000Y-125650000D03*
X107950000Y-125650000D03*
X108900000Y-125650000D03*
D22*
X51950000Y-104005000D03*
X51950000Y-105295000D03*
D19*
X98055000Y-113000000D03*
X99345000Y-113000000D03*
D22*
X51950000Y-98545000D03*
X51950000Y-97255000D03*
D19*
X90055000Y-124250000D03*
X91345000Y-124250000D03*
X90055000Y-122750000D03*
X91345000Y-122750000D03*
X51595000Y-101400000D03*
X50305000Y-101400000D03*
X56055000Y-113500000D03*
X57345000Y-113500000D03*
X108345000Y-112500000D03*
X107055000Y-112500000D03*
D20*
X72825000Y-134000000D03*
X72075000Y-134000000D03*
D22*
X70450000Y-132355000D03*
X70450000Y-133645000D03*
X74450000Y-132355000D03*
X74450000Y-133645000D03*
D19*
X104555000Y-113250000D03*
X105845000Y-113250000D03*
X101845000Y-112500000D03*
X100555000Y-112500000D03*
X88345000Y-112500000D03*
X87055000Y-112500000D03*
X109055000Y-124000000D03*
X110345000Y-124000000D03*
X106845000Y-124000000D03*
X105555000Y-124000000D03*
X56305000Y-123250000D03*
X57595000Y-123250000D03*
D28*
X54950000Y-103005000D03*
X54950000Y-99995000D03*
X54950000Y-111755000D03*
X54950000Y-108745000D03*
D32*
X76950000Y-132875000D03*
X76950000Y-131125000D03*
X108950000Y-120625000D03*
X108950000Y-122375000D03*
X106950000Y-120625000D03*
X106950000Y-122375000D03*
D26*
X119200000Y-129250000D03*
D20*
X104825000Y-114500000D03*
X105575000Y-114500000D03*
X106575000Y-114500000D03*
X107325000Y-114500000D03*
X98575000Y-114250000D03*
X99325000Y-114250000D03*
X100325000Y-114250000D03*
X101075000Y-114250000D03*
D19*
X117595000Y-95500000D03*
X116305000Y-95500000D03*
D22*
X115950000Y-89755000D03*
X115950000Y-91045000D03*
X52700000Y-131855000D03*
X52700000Y-133145000D03*
X56200000Y-131855000D03*
X56200000Y-133145000D03*
D33*
X70200000Y-126875000D03*
X70600000Y-126875000D03*
X71000000Y-126875000D03*
X71400000Y-126875000D03*
X71800000Y-126875000D03*
X72200000Y-126875000D03*
X72200000Y-128125000D03*
X71800000Y-128125000D03*
X71400000Y-128125000D03*
X71000000Y-128125000D03*
X70600000Y-128125000D03*
X70200000Y-128125000D03*
D34*
X71200000Y-127500000D03*
D20*
X59275000Y-97400000D03*
X58525000Y-97400000D03*
X58525000Y-99400000D03*
X59275000Y-99400000D03*
X59275000Y-98400000D03*
X58525000Y-98400000D03*
D21*
X107200000Y-103875000D03*
X107200000Y-104625000D03*
D35*
X111075000Y-125950000D03*
X116725000Y-123975000D03*
D21*
X89700000Y-105125000D03*
X89700000Y-105875000D03*
D20*
X88075000Y-111250000D03*
X87325000Y-111250000D03*
X88775000Y-114750000D03*
X88025000Y-114750000D03*
X88825000Y-113750000D03*
X88075000Y-113750000D03*
D19*
X103555000Y-109000000D03*
X104845000Y-109000000D03*
D22*
X105200000Y-105355000D03*
X105200000Y-106645000D03*
D19*
X102095000Y-109000000D03*
X100805000Y-109000000D03*
D22*
X104700000Y-100895000D03*
X104700000Y-99605000D03*
D20*
X100825000Y-100750000D03*
X100075000Y-100750000D03*
D19*
X100345000Y-102000000D03*
X99055000Y-102000000D03*
D20*
X115825000Y-114250000D03*
X116575000Y-114250000D03*
X118825000Y-109750000D03*
X119575000Y-109750000D03*
M02*
